<?xml version="1.0" encoding="UTF-8" standalone="no"?>
<!-- Created with Inkscape (http://www.inkscape.org/) -->

<svg
   version="1.1"
   id="svg1"
   width="512"
   height="512"
   viewBox="0 0 512 512"
   sodipodi:docname="14240635.png"
   inkscape:export-filename="/mnt/SSD EXTRA/Documentos/Projetos/drapaola/public/assets/14240635.png"
   inkscape:export-xdpi="96"
   inkscape:export-ydpi="96"
   xmlns:inkscape="http://www.inkscape.org/namespaces/inkscape"
   xmlns:sodipodi="http://sodipodi.sourceforge.net/DTD/sodipodi-0.dtd"
   xmlns="http://www.w3.org/2000/svg"
   xmlns:svg="http://www.w3.org/2000/svg">
  <defs
     id="defs1" />
  <sodipodi:namedview
     id="namedview1"
     pagecolor="#ffffff"
     bordercolor="#000000"
     borderopacity="0.25"
     inkscape:showpageshadow="2"
     inkscape:pageopacity="0.0"
     inkscape:pagecheckerboard="0"
     inkscape:deskcolor="#d1d1d1">
    <inkscape:page
       x="0"
       y="0"
       width="512"
       height="512"
       id="page2"
       margin="0"
       bleed="0" />
  </sodipodi:namedview>
  <g
     inkscape:groupmode="layer"
     inkscape:label="Image"
     id="g1">
    <path
       style="fill:#000000;stroke:none"
       d="M 185,123.42438 C 141.42194,129.14893 101.75903,143.29904 64,166 c -10.832966,6.51285 -22.438873,13.20172 -31.891205,21.66589 -3.911392,3.50251 -6.060976,11.36347 0.935188,13.0008 6.465062,1.51303 13.196908,-5.68695 17.956017,-9.08799 12.634552,-9.02908 26.121948,-17.34292 40,-24.33102 41.80084,-21.04819 85.87476,-34.20279 133,-29.08179 37.45926,4.07062 74.05991,20.6315 106,39.83411 9.2876,5.58377 18.20444,11.68478 27,18.01004 3.67056,2.63965 8.02332,6.36887 12.8912,4.3858 7.63276,-3.10937 2.15827,-11.07293 -1.90664,-14.26544 C 355.9043,176.64279 342.48642,168.10745 329,160.76929 286.36237,137.56949 234.68903,116.89709 185,123.42438 m 290.03937,13.33719 C 466.81046,138.50244 457.81735,154.18042 452,160 c -12.44492,12.44971 -25.66568,23.63434 -40,33.8588 -6.88052,4.90777 -15.74741,8.73416 -21.85187,14.52008 -4.06167,3.84973 -3.88531,11.70236 2.86731,12.28778 7.65747,0.66385 18.02899,-8.58921 23.98456,-12.69211 20.86111,-14.37158 40.12604,-30.80579 56.71143,-49.97455 3.03543,-3.50824 16.90783,-24.53445 1.32794,-21.23843 M 194,156.42438 c -47.39278,6.22262 -88.55436,18.30914 -130,43.17593 -8.925709,5.35529 -17.542187,11.04099 -26,17.10956 -3.548397,2.54602 -8.799625,5.59882 -9.627316,10.29089 -1.009958,5.72534 5.045975,9.75214 8.628087,13.08799 9.544033,8.88784 19.495353,17.28146 29.999229,25.02697 44.88745,33.09992 99.0134,58.27845 156,50.60187 43.96381,-5.9223 85.76065,-29.46338 120,-56.72144 8.29617,-6.60464 16.54141,-13.44805 23.99615,-20.99615 2.61979,-2.65259 6.54706,-5.90955 6.54706,-10 0,-4.79608 -5.12368,-8.08517 -8.54321,-10.57483 -9.37949,-6.82892 -19.05447,-13.06152 -29,-19.02548 -39.45828,-23.66165 -94.61511,-48.19693 -142,-41.97531 M 173,172 c -5.71794,12.91235 -12.82878,22.07162 -8.22607,37 12.32792,39.98431 70.94834,31.96677 74.04089,-9 0.82368,-10.91122 -5.8875,-18.6611 -9.81482,-28 9.04483,2.22827 28.68405,2.46909 35.14197,9.70215 4.725,5.29214 1.991,20.97931 0.64737,27.29785 C 258.60172,238.09814 231.52235,259.40369 202,259.98456 171.62946,260.58215 143.45036,238.72617 137.01466,209 c -1.51228,-6.98517 -4.11369,-20.14691 0.16436,-26.58102 C 142.41122,174.5498 164.4409,174.21445 173,172 m 28,2.57254 c 30.9678,0 31.07309,47.41586 0,47.4259 -31.15407,0.0101 -31.12701,-47.4259 0,-47.4259 M 122,187 c 0,14.88174 1.01724,28.41721 7.80864,42 24.58559,49.17114 91.61314,59.26019 129.10109,18.99924 C 274.90466,230.82114 280,209.73224 280,187 c 26.27121,4.66861 54.75595,25.7843 76,41 v 2 c -15.80154,12.03781 -30.19949,25.48126 -47,36.30786 -46.97787,30.27353 -101.08986,46.94177 -156,29.34802 -18.57414,-5.95135 -36.35714,-14.75024 -53,-24.85882 C 86.317947,262.48682 73.288353,252.99417 61,242.75308 55.824203,238.43958 49.078667,234.08084 46,228 67.2117,212.8075 95.724487,191.52438 122,187 m 366,5.46527 c -19.4455,3.39618 -41.46213,9.21344 -59.99536,16.01697 -5.91565,2.17163 -8.80539,11.24457 -0.98535,13.19601 5.66601,1.41391 12.5625,-1.93203 17.98071,-3.30401 11.36621,-2.87812 22.63583,-6.12241 34,-9 5.19336,-1.31507 12.40955,-1.90863 16.77161,-5.21759 C 503.77667,198.0842 495.07217,191.2301 488,192.46527 m -59.8912,37.29169 c -6.46882,2.59146 -3.70612,10.14618 0.91049,12.82947 14.41675,8.37933 32.48977,12.82226 47.98071,19.01388 4.7522,1.89942 12.86777,6.82083 17.94138,4.20523 5.26303,-2.71325 4.6752,-9.47394 -0.0502,-12.27313 -14.54934,-8.61862 -33.15393,-13.14563 -48.8912,-19.32947 -4.7973,-1.88507 -12.68137,-6.53311 -17.8912,-4.44598 m -35.06482,5.00076 c -5.91181,2.22226 -5.27787,8.92532 -0.9105,12.28781 22.09662,17.01242 44.52015,29.07898 60.83796,52.95447 3.86291,5.65204 9.94223,24.85394 18.96994,21.39197 10.8542,-4.16239 -2.8372,-23.2059 -6.29628,-28.39197 C 452.43854,273.19986 434.69397,257.43738 415,244.33334 c -5.22647,-3.4776 -15.22229,-12.10684 -21.95602,-9.57562 M 25.108797,254.03241 c -7.447718,4.03845 -1.762791,15.37543 0.495369,20.96759 7.687792,19.0383 19.045439,35.71335 32.681326,50.99615 C 96.015335,368.2829 151.69293,378.45966 205,382.08951 c 12.63931,0.86065 25.33589,-0.46903 38,-1.08951 4.78165,-0.23428 13.04843,0.0972 16.6821,-3.43365 4.13159,-4.01465 1.65292,-10.35724 -3.69753,-11.33716 C 247.07893,364.59808 236.12479,367.89532 227,368.00385 170.14529,368.68024 113.214,360.34964 71.000771,318 55.930264,302.8808 43.53632,284.28577 36.667439,264 35.060421,259.25403 31.930357,250.33347 25.108797,254.03241 Z"
       id="path1" />
  </g>
</svg>
