<?xml version="1.0" encoding="UTF-8" standalone="no"?>
<!-- Created with Inkscape (http://www.inkscape.org/) -->

<svg
   version="1.1"
   id="svg1"
   width="512"
   height="512"
   viewBox="0 0 512 512"
   sodipodi:docname="15832526.png"
   inkscape:export-filename="15832526.svg"
   inkscape:export-xdpi="96"
   inkscape:export-ydpi="96"
   xmlns:inkscape="http://www.inkscape.org/namespaces/inkscape"
   xmlns:sodipodi="http://sodipodi.sourceforge.net/DTD/sodipodi-0.dtd"
   xmlns="http://www.w3.org/2000/svg"
   xmlns:svg="http://www.w3.org/2000/svg">
  <defs
     id="defs1" />
  <sodipodi:namedview
     id="namedview1"
     pagecolor="#ffffff"
     bordercolor="#000000"
     borderopacity="0.25"
     inkscape:showpageshadow="2"
     inkscape:pageopacity="0.0"
     inkscape:pagecheckerboard="0"
     inkscape:deskcolor="#d1d1d1"
     showgrid="false">
    <inkscape:page
       x="0"
       y="0"
       width="512"
       height="512"
       id="page2"
       margin="0"
       bleed="0" />
  </sodipodi:namedview>
  <g
     inkscape:groupmode="layer"
     inkscape:label="Image"
     id="g1">
    <path
       style="fill:#000000"
       d="m 401.91719,417.27543 c -3.19246,-3.19247 -2.58226,-5.52782 2.93956,-11.25009 l 4.11728,-4.26674 -7.222,-7.222 -7.222,-7.222 -13.25264,13.13074 c -15.61428,15.47067 -16.93734,16.34287 -20.62752,13.59843 -4.48206,-3.33338 -3.9738,-5.83606 2.51738,-12.39569 l 5.81648,-5.87781 -19.34277,-19.36186 -19.34276,-19.36186 -8.04913,5.76545 c -9.99557,7.15965 -23.81873,14.12791 -33.88242,17.08014 -7.61166,2.23291 -7.69897,2.23547 -14.39723,0.42234 -7.43319,-2.01207 -22.89888,-9.34827 -31.44467,-14.91588 l -5.5,-3.58327 -2.47737,3.23838 c -7.49825,9.80156 -20.02739,17.61342 -34.02263,21.21295 -13.71417,3.52724 -41.3484,3.03327 -62,-1.10828 -13.72255,-2.75196 -17.59978,-4.1925 -18.88677,-7.01714 -1.616,-3.54672 0.20926,-6.13546 8.10788,-11.49931 21.98027,-14.92652 37.87479,-41.72075 43.17125,-72.77607 2.52412,-14.79989 2.45993,-15.14412 -4.55362,-24.42272 -3.3887,-4.48308 -7.53771,-11.07606 -9.22004,-14.65106 -2.69716,-5.73158 -3.06231,-7.57219 -3.08873,-15.56956 -0.0266,-8.04373 0.25077,-9.4797 2.4521,-12.69562 1.36514,-1.99433 4.10653,-4.65254 6.09197,-5.90714 l 3.6099,-2.28108 -1.81315,-7.0233 c -3.88718,-15.05709 -5.13995,-27.16143 -4.60655,-44.50894 0.40865,-13.29009 1.00041,-18.39235 3.03091,-26.13324 7.64703,-29.15268 24.37477,-49.353751 52.70485,-63.648398 53.9025,-27.197856 129.72156,-15.187061 163.94304,25.970858 7.73872,9.30731 15.3124,24.43861 18.66801,37.29642 2.09747,8.03699 2.71054,13.14589 3.1231,26.02579 0.55852,17.43694 -0.38645,27.3666 -4.04425,42.49691 l -2.30215,9.5227 4.23123,2.75686 c 6.39507,4.16672 8.75406,9.8102 8.15948,19.52021 -0.59944,9.78934 -3.99432,17.3589 -13.45519,30.00106 -3.83754,5.12795 -9.92706,14.80295 -13.53227,21.5 -3.60521,6.69706 -7.39555,13.63153 -8.42296,15.40994 l -1.86804,3.23347 20.98109,21.00654 20.9811,21.00655 5.5479,-5.49002 c 3.93245,-3.89142 6.3237,-5.49001 8.2122,-5.49001 2.89184,0 5.77771,3.16327 5.77771,6.33309 0,1.08555 -6.0396,8.01799 -14.20916,16.30972 l -14.20916,14.42163 7.15515,7.15515 7.15514,7.15514 5.01118,-4.68736 c 2.75614,-2.57806 5.93045,-4.68737 7.05401,-4.68737 2.69836,0 6.04284,3.43728 6.04284,6.21053 0,2.70472 -26.67148,29.78947 -29.33493,29.78947 -0.96579,0 -2.88847,-1.13249 -4.27263,-2.51665 z m -11.65688,-42.71834 c 6.74544,-6.72925 12.26444,-12.70672 12.26444,-13.28327 0,-0.57655 -15.1875,-16.19263 -33.75,-34.70239 -35.67257,-35.57121 -38.34023,-37.71281 -47.03212,-37.75739 -12.67328,-0.065 -19.45125,9.72299 -15.71316,22.69119 1.62422,5.63475 2.57829,6.7002 36.2993,40.53685 19.04719,19.1125 34.86432,34.75 35.14917,34.75 0.28486,0 6.03693,-5.50575 12.78237,-12.23499 z m -195.19778,0.34338 c 13.62991,-2.81313 23.21685,-8.22881 29.36265,-16.58703 l 2.9255,-3.97863 -10.66297,-11.05004 c -11.4154,-11.82981 -21.20153,-24.85915 -28.8319,-38.38705 -2.60415,-4.6169 -4.86187,-7.9919 -5.01716,-7.5 -0.15529,0.4919 -1.38518,5.26869 -2.7331,10.61509 -5.98183,23.72652 -19.5708,47.21966 -34.68426,59.96352 -2.6931,2.27085 -4.89654,4.46177 -4.89654,4.86871 0,0.40694 3.9375,1.27579 8.75,1.93079 4.8125,0.655 9.425,1.3244 10.25,1.48757 5.71276,1.12989 27.51015,0.29392 35.53778,-1.36293 z m 92.74377,-7.18153 c 7.70213,-2.56778 19.20078,-8.67183 27.5346,-14.61672 l 6.31615,-4.5056 -11.09742,-11.35682 c -13.44364,-13.75789 -17.2305,-20.55868 -17.41819,-31.28117 -0.0761,-4.34602 0.52897,-8.34018 1.7382,-11.47463 l 1.85489,-4.80808 -11.10489,-11.36447 c -6.10769,-6.25046 -11.10489,-12.19919 -11.10489,-13.21941 0,-3.14758 2.89774,-6.29996 5.79106,-6.29996 2.06985,0 5.17806,2.48555 13.69329,10.95012 l 11.01565,10.95013 5.5,-1.91748 c 6.75386,-2.35461 12.96741,-2.47858 19.97191,-0.39847 7.40579,2.19928 11.92379,5.28424 22.08602,15.08065 l 8.78142,8.46532 2.43794,-4.31514 c 1.34087,-2.37332 5.00974,-8.99097 8.15305,-14.70588 3.1433,-5.71492 8.44438,-14.03992 11.78017,-18.5 9.89897,-13.23533 13.64439,-23.24034 11.36923,-30.37022 -0.73534,-2.30442 -5.23173,-5.23903 -8.0272,-5.23903 -2.58869,0 -9.11027,6.66828 -10.96809,11.21482 -3.50163,8.56934 -4.02816,9.27345 -7.16675,9.5837 -2.04781,0.20244 -3.61658,-0.3608 -4.87357,-1.74975 -2.03665,-2.25048 -2.01402,-2.58905 2.32107,-34.71686 l 1.77681,-13.16809 -9.57101,-2.20294 c -24.85429,-5.72067 -44.16965,-15.98477 -60.08701,-31.92997 -4.6838,-4.692 -10.51058,-11.68091 -12.94839,-15.53091 -5.29963,-8.36964 -5.2137,-8.26396 -5.67818,-6.98297 -0.20283,0.55937 -2.2474,3.89219 -4.5435,7.40627 -9.18546,14.05793 -23.61112,26.63764 -40.62069,35.42274 -9.65087,4.98448 -26.62178,10.99584 -34.28856,12.14555 -7.86492,1.17941 -7.61073,-0.11047 -4.56911,23.18581 1.49525,11.45243 2.70645,21.80296 2.69154,23.00117 -0.0375,3.0121 -2.6309,5.32143 -5.97608,5.32143 -3.42457,0 -4.31415,-1.05189 -6.46341,-7.64263 -1.82739,-5.60374 -7.26849,-11.98819 -11.01909,-12.92953 -2.73481,-0.68639 -8.04104,1.75517 -8.94734,4.11696 -2.55625,6.66148 1.19372,17.34409 10.43017,29.71258 3.79617,5.08344 8.8251,12.74778 11.17539,17.03187 16.33327,29.77213 23.03115,39.66623 36.27326,53.58284 15.58836,16.38237 29.93054,26.52159 46.35827,32.77302 4.75295,1.8087 9.21843,3.30347 9.92328,3.32172 0.70485,0.0182 4.07985,-0.89974 7.5,-2.03997 z m -49.28155,-86.92686 c -1.1,-1.1 -2,-2.9 -2,-4 0,-3.99154 3.46293,-6 10.34501,-6 7.10321,0 9.65499,1.65768 9.65499,6.27204 0,3.83338 -3.38119,5.72796 -10.22251,5.72796 -4.44416,0 -6.23905,-0.46156 -7.77749,-2 z m 8.51249,-24.77336 c -2.74314,-1.49965 -5.14549,-3.54973 -5.33856,-4.55573 -0.67068,-3.49453 0.79253,-6.62439 3.40322,-7.27963 4.57528,-1.14832 15.42285,4.87268 15.42285,8.56053 0,2.94605 -2.99086,6.04925 -5.8067,6.02483 -1.48132,-0.0128 -4.93768,-1.25035 -7.68081,-2.75 z m 43.1425,-11.05538 c -2.4305,-2.68567 -2.03421,-5.75973 1.38273,-10.72609 3.764,-5.47078 5.98209,-6.76834 9.36888,-5.48068 3.51611,1.33682 4.37691,5.42514 2.05145,9.74326 -4.22626,7.8477 -9.25355,10.38568 -12.80306,6.46351 z m -23.32596,-4.4801 c -1.04623,-1.33006 -2.74354,-4.28398 -3.77181,-6.56426 -2.26836,-5.03034 -1.11565,-8.69766 3.06355,-9.74657 3.73276,-0.93686 5.41496,0.377 8.87923,6.93504 2.83206,5.36122 2.91428,5.83324 1.4688,8.43188 -2.12165,3.81427 -7.00577,4.29251 -9.63977,0.94391 z M 181.8598,205.97191 c -2.10867,-16.20938 -2.08144,-16.26028 9.65912,-18.05756 10.74227,-1.64446 27.73018,-7.15083 37.43901,-12.13529 20.44765,-10.49771 35.86504,-26.37309 43.68917,-44.98698 3.06795,-7.29875 6.17037,-10.29706 9.68104,-9.35615 1.71301,0.45911 3.41463,2.99532 6.63893,9.89513 5.20532,11.13909 9.12294,17.03301 16.46636,24.77312 14.81711,15.61752 39.80858,27.95045 64.52539,31.84235 4.27037,0.67241 7.84584,1.85066 9.03718,2.9781 1.93522,1.83141 1.94074,2.10713 0.30165,15.08479 -0.91829,7.27061 -1.50639,13.3825 -1.3069,13.58199 0.19949,0.19949 1.26521,-0.12029 2.36827,-0.71063 6.7223,-3.59767 11.79997,-48.98215 7.72835,-69.0764 -2.13471,-10.53524 -3.87427,-15.75985 -8.2031,-24.63731 -11.059,-22.67952 -35.29002,-39.656411 -67.62403,-47.379175 -45.33676,-10.828386 -98.57486,3.878799 -122.28775,33.782355 -5.90344,7.44463 -12.90547,21.64919 -15.63702,31.72183 -2.93206,10.81199 -3.24793,42.3035 -0.55721,55.55237 2.85213,14.04358 4.59306,18.95307 7.05076,19.88337 1.20765,0.45713 2.31742,0.7244 2.46616,0.59394 0.14874,-0.13047 -0.49719,-6.1379 -1.43538,-13.34985 z m -97.930061,76.73464 c -1.04774,-1.14705 -4.62228,-6.88455 -7.94342,-12.75 l -6.03844,-10.66447 -12.45886,-6.72065 c -18.43421,-9.94392 -18.4569,-11.89132 -0.25864,-22.19511 l 11.89355,-6.73408 6.21889,-11.81797 c 3.42039,-6.49988 6.85836,-12.34868 7.63994,-12.99734 0.78157,-0.64865 2.68576,-1.03435 4.23152,-0.85711 2.99039,0.34289 3.89519,1.53475 13.134571,17.30163 l 4.6759,7.97937 12.21865,6.38418 c 7.64795,3.99601 12.45119,7.11685 12.84029,8.3428 1.48916,4.69193 -0.24934,6.54917 -12.65905,13.52371 l -12.08237,6.79057 -5.658761,10.92333 c -8.04335,15.5264 -11.3265,18.33801 -15.75377,13.49114 z m 7.60138,-23.92763 c 3.93704,-8.13826 5.30104,-9.53955 13.731761,-14.10715 3.43098,-1.85883 6.24348,-3.71217 6.25,-4.11853 0.007,-0.40636 -3.53576,-2.52255 -7.87176,-4.70265 -7.640081,-3.84136 -8.011581,-4.19695 -12.025851,-11.51116 -2.27822,-4.15104 -4.46809,-7.54619 -4.86637,-7.54477 -0.39828,0.001 -2.52415,3.48874 -4.72415,7.74959 -3.78812,7.33666 -4.38422,7.96352 -11.25379,11.83454 -3.98958,2.24815 -7.50547,4.33922 -7.81308,4.64683 -0.30761,0.30761 3.02784,2.47059 7.4121,4.80662 7.68522,4.09486 8.12724,4.52877 12.31308,12.08753 2.38793,4.31211 4.59225,7.84743 4.8985,7.85626 0.30624,0.009 2.08354,-3.13987 3.94956,-6.99711 z"
       id="path1" />
  </g>
</svg>
