<?xml version="1.0" encoding="UTF-8" standalone="no"?>
<!-- Created with Inkscape (http://www.inkscape.org/) -->

<svg
   version="1.1"
   id="svg1"
   width="501.55103"
   height="501.55103"
   viewBox="0 0 501.55103 501.55103"
   sodipodi:docname="17108559.png"
   xmlns:inkscape="http://www.inkscape.org/namespaces/inkscape"
   xmlns:sodipodi="http://sodipodi.sourceforge.net/DTD/sodipodi-0.dtd"
   xmlns="http://www.w3.org/2000/svg"
   xmlns:svg="http://www.w3.org/2000/svg">
  <defs
     id="defs1" />
  <sodipodi:namedview
     id="namedview1"
     pagecolor="#ffffff"
     bordercolor="#000000"
     borderopacity="0.25"
     inkscape:showpageshadow="2"
     inkscape:pageopacity="0.0"
     inkscape:pagecheckerboard="0"
     inkscape:deskcolor="#d1d1d1">
    <inkscape:page
       x="0"
       y="0"
       width="501.55103"
       height="501.55103"
       id="page2"
       margin="0"
       bleed="0" />
  </sodipodi:namedview>
  <g
     inkscape:groupmode="layer"
     inkscape:label="Image"
     id="g1">
    <path
       style="fill:#060606;stroke:none"
       d="M 186.12245,0.41571668 C 168.69716,2.7036532 151.9162,4.5188039 135.18367,10.473932 88.92716,26.936683 57.433591,62.528351 36.498111,105.79592 c -11.479319,23.72443 -18.008059,49.67181 -22.976569,75.42857 -1.129724,5.85648 -7.2009271,24.98734 4.096751,24.15949 8.659894,-0.63458 9.225292,-24.27629 10.594859,-31.01663 6.802727,-33.47975 18.8685,-65.68306 38.076342,-94.040819 29.484346,-43.529596 80.368276,-68.12519 132.567646,-67.58807 19.59214,0.20158 37.67159,6.136589 56.81633,8.26988 19.25827,2.145936 36.11593,0.399663 54.85715,7.991679 50.47675,20.448023 78.98066,76.49363 81.26755,128.71427 1.21134,27.66055 -4.83954,56.62628 -6.73089,84.2449 -1.51495,22.12189 -1.0758,44.41537 -1.06728,66.61224 0.002,5.27087 -1.08246,20.12397 6.86848,20.12397 4.1111,0 6.34716,-3.74983 6.73849,-7.39002 1.10027,-10.23528 -0.87227,-21.899 -0.87227,-32.32579 0,-44.25275 8.04863,-88.14287 7.83599,-132.24489 C 404.2892,98.354513 368.49834,37.651955 313.46939,15.873017 294.06048,8.191496 275.42889,10.873206 255.67347,7.3824538 232.89195,3.3569735 209.49351,-2.652862 186.12245,0.41571668 M 226.50567,35.996234 c -5.13014,2.280403 -4.24708,11.34369 -5.53741,15.922134 -2.9648,10.51988 -9.16172,20.297891 -16.40364,28.408163 -19.30423,21.618909 -47.94233,35.559079 -75.2585,44.056699 -11.84182,3.68379 -27.16614,4.8562 -38.097503,10.45955 -5.113949,2.62139 -5.00304,10.12477 0.89191,11.65684 9.958123,2.58808 27.689803,-5.26698 37.205593,-8.37717 35.2796,-11.53098 72.39645,-27.65646 93.69237,-59.755102 6.47169,-9.754574 10.86383,-20.717375 12.36509,-32.326531 0.69176,-5.34937 -1.64771,-13.249572 -8.85791,-10.044583 M 80.326531,192.97959 c 0.20951,25.30572 5.152984,51.22272 7.6712,76.40817 2.183133,21.83412 1.949991,45.35048 11.243386,65.63265 8.955293,19.54425 24.424883,33.70869 39.860923,48.08768 25.15786,23.43508 52.34616,54.05594 90.12245,48.59787 24.60576,-3.55512 45.94776,-25.08225 62.69388,-41.82841 0,25.82394 1.91183,52.19944 26.44898,67.13756 9.91562,6.03662 21.41309,8.64315 32.32653,12.20938 6.97888,2.28053 30.10341,13.77049 35.72715,7.52533 3.1864,-3.5385 1.11663,-7.92161 -2.47469,-10.05595 -7.06912,-4.20117 -16.63686,-6.02631 -24.43613,-8.56841 -22.0517,-7.18748 -46.68111,-12.85747 -52.99623,-38.86015 -1.60523,-6.60961 -0.88132,-13.81727 -0.88132,-20.57143 0,-5.8638 -1.94857,-16.05806 1.00679,-21.27135 4.085,-7.20605 12.96641,-13.43119 18.39306,-19.86242 1.54861,-1.8353 3.92736,-5.11882 6.74151,-3.72034 2.91713,1.44968 2.65606,6.93971 4.65079,9.42253 4.82107,6.00066 12.12116,10.03328 16.42478,16.53967 3.44397,5.20674 2.5758,10.87309 7.73243,15.49811 16.12686,14.46428 36.13145,26.09296 53.78533,38.65911 8.66374,6.1669 18.43342,16.00183 28.40816,19.73016 7.71402,2.88332 12.60696,-11.61409 17.23282,-8.8957 5.68493,3.34077 -9.09038,16.22673 0.50641,21.30158 2.87175,1.51859 5.97355,0.43144 7.91156,-1.99243 3.3435,-4.18165 4.8075,-9.96383 7.75435,-14.47014 3.47443,-5.31311 8.32811,-9.02257 12.21088,-13.88056 1.89129,-2.36635 2.88433,-5.63624 1.22526,-8.42632 -5.5913,-9.40289 -16.48152,7.5553 -24.31066,4.67422 3.38845,-4.27274 9.55365,-10.52714 7.24189,-16.56463 -2.61448,-6.82808 -15.18335,-12.63236 -20.95618,-16.74149 -15.03817,-10.70427 -30.05683,-21.43736 -45.06122,-32.18895 -7.08441,-5.07643 -14.75125,-12.52424 -23.51021,-14.31972 -4.37037,-0.89588 -8.48542,1.46141 -12.73469,0.64172 -7.21229,-1.3913 -13.5513,-7.65061 -20.57143,-9.99926 -3.22923,-1.08037 -9.10182,1.18802 -11.0431,-2.30913 -1.60391,-2.88942 1.12189,-6.77374 2.21541,-9.4165 2.80515,-6.77935 4.95533,-14.23033 5.72261,-21.55102 3.3136,-31.61521 5.24626,-63.50489 9.39835,-95.02041 1.15391,-8.75863 1.89918,-17.64338 2.60697,-26.44898 0.2907,-3.61666 1.84391,-8.13681 -0.25928,-11.48225 -2.22052,-3.53204 -7.00658,-2.99788 -10.60014,-3.09748 -9.28054,-0.25722 -18.23656,-0.47512 -27.42858,-1.9947 -19.87942,-3.2864 -39.75143,-9.48119 -57.79592,-18.50343 -10.52173,-5.26088 -19.8916,-12.63081 -30.36734,-17.8201 v -1.95918 c 8.11785,-4.04372 17.34369,-11.48153 21.55102,-19.59184 26.34441,12.31438 49.69133,24.74453 79.34694,27.50191 6.16152,0.5729 29.44109,5.05798 27.07408,-6.91233 -1.44021,-7.28329 -17.43454,-5.35191 -23.15571,-5.81178 -27.98605,-2.24947 -48.93239,-15.28816 -74.44899,-24.57371 7.42147,-13.380664 14.2454,-25.97291 17.42629,-41.142862 1.07565,-5.129823 -1.36792,-17.307099 -9.17913,-11.024175 -6.36094,5.11643 -8.11989,23.872828 -11.92666,31.595604 -9.55854,19.391453 -25.32537,35.446883 -44.3205,45.738463 -53.90499,29.20581 -138.754548,23.96983 -170.66364,84.54725 -24.125994,45.80169 -5.845964,101.47021 23.112623,140.08164 17.965411,23.9539 45.304967,50.89925 48.445197,82.28571 2.5584,25.57097 -12.56596,44.25993 -37.057442,50.07258 -5.402606,1.28221 -24.544623,2.12061 -18.433108,12.39757 2.823008,4.74711 10.161157,2.48838 14.51474,1.75661 13.326192,-2.23989 26.89686,-6.4781 37.21013,-15.54118 25.71498,-22.59782 17.99559,-60.7271 3.62736,-86.88966 C 100.79004,371.31828 78.653792,350.07757 63.285712,324.2449 44.878613,293.30381 38.141239,248.43759 57.611491,216.4898 c 5.613154,-9.21034 13.540201,-17.77134 22.71504,-23.51021 m 265.469389,-5.87755 c -1.35339,31.51627 -5.76927,63.69012 -9.51625,95.02041 -2.01622,16.85871 -1.41955,34.7342 -10.07559,49.95919 -11.58479,-4.87309 -20.04617,-15.58472 -31.34693,-21 -5.39404,-2.5848 -11.97731,2.36868 -8.08466,8.08465 4.75342,6.97992 15.9477,12.24588 22.77853,17.11867 2.63562,1.88011 8.31009,4.67046 7.92819,8.56993 -0.92955,9.49124 -19.80741,22.7107 -26.54043,28.64927 -23.04791,20.32847 -51.15988,55.73982 -86.20408,43.72487 -15.10627,-5.17921 -27.49307,-16.74995 -39.18368,-27.18897 -21.77562,-19.44433 -47.59154,-39.20977 -57.4588,-67.75434 -7.88577,-22.8124 -6.92737,-50.52982 -9.318978,-74.44898 -1.598892,-15.99101 -3.103952,-32.04555 -5.01209,-48 -0.547934,-4.58141 -3.206932,-13.17866 1.408163,-16.13454 25.831125,-16.54439 62.483915,-17.62715 90.953135,-28.36356 7.58489,-2.86045 15.12565,-5.94562 22.53061,-9.2434 3.18241,-1.41728 7.12907,-4.42258 10.77551,-3.8254 4.83798,0.79233 9.71921,5.93659 13.71429,8.58354 8.78728,5.82203 17.99937,10.75333 27.42857,15.43461 25.92797,12.87233 56.30836,20.21711 85.22449,20.81405 m -208.65306,3.39381 c -9.26302,1.6707 -17.62722,8.41905 -24.38322,14.69313 -3.36745,3.12723 -5.73261,9.39509 0,11.68556 9.4691,3.7834 18.97119,-12.52145 28.30159,-13.73697 16.14884,-2.10379 34.13778,17.65241 49.9161,13.86773 6.93092,-1.66247 5.22117,-9.95262 0.0242,-12.46638 -13.73889,-6.64549 -38.57085,-16.80045 -53.85866,-14.04307 m 152.81633,0 c -13.62822,2.4528 -30.61458,8.01203 -43.08315,14.04307 -5.25238,2.54057 -7.02273,10.81583 0,12.46638 4.34724,1.02172 9.65502,-1.78095 13.69539,-3.12774 10.18936,-3.39646 24.48232,-11.3187 35.26531,-10.8292 10.53883,0.47841 17.94403,16.53354 28.36508,14.09452 9.20478,-2.15437 1.95685,-11.22734 -1.91987,-14.3636 -9.60692,-7.77198 -19.33328,-14.62129 -32.32276,-12.28343 m -167.51021,37.74905 -3.91837,12.73469 13.71429,2.93878 c -5.86465,0.004 -20.55479,6.91299 -8.70975,12.00756 7.45003,3.20427 15.75539,-1.39812 22.42404,-4.17083 -3.88084,4.30527 -11.40833,18.73446 1.95918,15.01968 6.45307,-1.79333 9.02239,-7.8246 13.99773,-11.49359 6.579,-4.85159 25.507,-2.92248 27.45729,-13.36359 0.7927,-4.24386 -3.07969,-7.72173 -7.17005,-7.30685 -9.61119,0.97481 -17.0538,7.49621 -27.42783,6.18744 -9.2782,-1.1705 -10.63313,-9.80536 -17.7347,-13.49055 -4.14815,-2.1526 -9.99938,1.40918 -14.59183,0.93726 m 168.4898,23.5102 c 6.55742,2.72575 15.12571,7.30963 22.42404,4.17083 11.95764,-5.14264 -2.77588,-12.00364 -8.70976,-12.00756 4.45196,-4.04736 11.4723,-0.41524 16.22826,-4.63115 10.67701,-9.46462 -13.0975,-12.78811 -18.18367,-12.57293 -7.27872,0.30794 -10.59372,11.83256 -18.61601,13.74376 -11.44979,2.72778 -19.88191,-6.23429 -30.36281,-5.90326 -3.96551,0.12526 -6.19234,3.63317 -5.63947,7.36281 1.5542,10.48455 20.44519,8.68972 27.01964,13.36359 4.93366,3.50738 7.63432,9.72746 13.88059,11.49281 13.36174,3.77631 5.8192,-10.73671 1.95919,-15.0189 m -90.06501,53.66817 c -7.87304,2.75487 -2.06281,12.2866 1.91685,15.50038 7.45597,6.02111 18.72383,6.79909 27.41346,3.22906 5.34021,-2.19398 19.57836,-19.05128 5.86244,-19.05218 -7.19991,-4.8e-4 -10.45359,9.44406 -18.59713,8.01664 -5.83151,-1.02216 -10.32957,-9.88644 -16.59562,-7.6939 M 21.774755,332.81256 c -9.043945,4.07843 2.990099,19.43815 6.072562,23.75887 15.099081,21.16457 36.548508,41.54441 42.782315,67.59184 3.968037,16.58012 -3.037122,34.45061 -19.690856,40.45806 -6.011248,2.16841 -18.622861,1.74932 -22.665912,6.97277 -2.928412,3.7834 -0.33402,8.92225 4.068786,9.85263 5.686703,1.20165 14.109028,-1.7498 19.576718,-3.31748 5.93434,-1.70146 11.867006,-4.29397 16.653061,-8.24716 36.498661,-30.14717 4.504283,-75.73858 -16.526076,-103.51474 -7.010196,-9.25883 -13.984624,-18.44902 -19.996978,-28.39304 -2.181266,-3.6077 -5.614578,-7.26281 -10.27362,-5.16175 m 175.123205,4.5971 c -6.27218,0.97965 -22.92811,3.69816 -26.26983,9.51096 -3.47517,6.04493 3.98422,14.37813 7.74903,18.46714 12.00552,13.03926 30.95235,21.32717 48.88815,18.15796 14.19362,-2.50796 27.7798,-10.37474 36.31596,-22.07633 2.85076,-3.9079 8.15188,-11.55768 3.34316,-15.92973 -13.08772,-11.89919 -32.72851,-6.14349 -47.49586,-5.85865 -7.71137,0.14875 -14.37999,-3.54433 -22.53061,-2.27135 m 55.83674,16.223 c -14.27015,21.12786 -53.53128,25.14616 -66.61225,0 6.65015,-2.47879 14.3932,-4.96845 21.55102,-3.44597 3.9327,0.83651 7.32104,4.28135 11.33939,4.41043 4.16371,0.13375 8.04668,-3.62794 12.17082,-4.42401 7.37765,-1.42412 14.63287,1.20925 21.55102,3.45955 m 97.95918,3.91836 11.7551,5.87756 -1.95918,3.91836 -9.79592,-9.79592 m 36.2449,10.77551 c -2.1344,4.29053 -7.23283,8.86413 -7.74227,13.71052 -0.43506,4.1387 3.87466,7.54921 7.72867,5.81101 4.409,-1.98848 7.5194,-7.66535 9.80952,-11.68479 l 9.79592,5.87755 c -1.78388,4.70514 -7.41579,9.56657 -7.39002,14.67875 0.0722,14.32339 14.87695,-1.80989 17.18593,-5.86242 l 9.79592,5.87755 v 0.97959 c -2.57193,3.33694 -6.60961,7.4791 -7.35827,11.75435 -0.71852,4.10312 3.18526,8.23733 7.34392,6.57596 4.4351,-1.77181 7.43074,-7.61788 9.81027,-11.47317 l 7.83674,3.91837 -13.71429,20.57143 c -14.56886,-8.9922 -28.18811,-19.99312 -42.12245,-29.95465 -5.7873,-4.13729 -14.88039,-8.44052 -18.99699,-14.30764 -6.4182,-9.14741 9.00078,-22.31235 18.0174,-16.47241 m 70.53061,49.95919 c -1.17695,5.9142 -5.49866,10.92555 -9.10505,15.6538 -1.02052,1.33797 -3.78016,5.33397 -5.85034,3.20182 -3.10748,-3.20048 9.01686,-16.86541 11.03702,-19.83521 z"
       id="path1" />
  </g>
</svg>
