<?xml version="1.0" encoding="UTF-8" standalone="no"?>
<!-- Created with Inkscape (http://www.inkscape.org/) -->

<svg
   version="1.1"
   id="svg1"
   width="512"
   height="512"
   viewBox="0 0 512 512"
   sodipodi:docname="17405191.png"
   xmlns:inkscape="http://www.inkscape.org/namespaces/inkscape"
   xmlns:sodipodi="http://sodipodi.sourceforge.net/DTD/sodipodi-0.dtd"
   xmlns="http://www.w3.org/2000/svg"
   xmlns:svg="http://www.w3.org/2000/svg">
  <defs
     id="defs1" />
  <sodipodi:namedview
     id="namedview1"
     pagecolor="#ffffff"
     bordercolor="#000000"
     borderopacity="0.25"
     inkscape:showpageshadow="2"
     inkscape:pageopacity="0.0"
     inkscape:pagecheckerboard="0"
     inkscape:deskcolor="#d1d1d1">
    <inkscape:page
       x="0"
       y="0"
       width="512"
       height="512"
       id="page2"
       margin="0"
       bleed="0" />
  </sodipodi:namedview>
  <g
     inkscape:groupmode="layer"
     inkscape:label="Image"
     id="g1">
    <path
       style="fill:#050505;stroke:none"
       d="m 317.89614,292.10386 c 15.32538,1.93512 27.16458,-8.40594 40,-15.71911 28.01645,-15.96283 55.47317,-33.25546 84,-48.28089 2.97522,5.54911 12.59173,9.05222 13.7276,-0.0154 0.70755,-5.64831 -4.46683,-11.14804 -6.7276,-15.98456 3.31582,-1.54812 9.00488,-6.47238 12.79089,-5.47378 4.80991,1.26865 7.52634,10.21823 13.89121,4.87039 3.82641,-3.21499 1.83709,-8.77859 -0.125,-12.39661 -4.95719,-9.1408 -10.52933,-17.9812 -15.70679,-27 -2.08292,-3.62829 -4.10175,-8.87283 -7.9545,-10.97146 -11.1961,-6.09863 -9.64703,9.63528 -5.89581,14.97146 l -15,7 c -1.30277,-4.42889 -3.81577,-10.63552 -8.10419,-12.97146 -8.84448,-4.81769 -10.64972,6.24756 -7.89581,11.97146 l -61,34 c -1.47946,-5.02767 -5.56848,-8.9664 -6.69678,-14 -1.74612,-7.78988 1.15912,-16.94168 0.60727,-25 -1.3999,-20.44189 -6.42392,-39.9317 -16.21915,-58 C 320.62862,98.889143 303.26336,83.724562 287.80663,67.103865 283.4276,62.395064 277.08605,58.303206 273.49953,53.014357 270.21694,48.173689 270.99795,39.747389 269.1469,34.103865 264.28942,19.294234 252.35883,7.7137892 237.89614,2.3330519 c -23.47843,-8.7349853 -50.9522,1.0870972 -63.53549,22.7708131 -4.36888,7.528534 -3.59912,19.574188 -8.78241,25.830231 -24.37058,29.414489 -55.75072,56.529964 -67.936733,94.169764 -3.393318,10.48121 -5.691368,21.9629 -5.744598,33 -0.03475,7.20521 2.122452,17.14924 0.449844,24 -1.930175,7.90574 -8.263939,13.36258 -9.280861,22 -1.763343,14.97733 2.763619,28.99476 14.830246,38.62037 4.426332,3.53094 11.730502,4.73184 14.914352,9.51236 3.96587,5.95474 5.53552,14.2872 8.36651,20.86727 6.33678,14.72867 13.75269,29.10352 23.34876,42 9.79149,13.15912 29.69097,23.48279 26.27469,41 -4.26303,21.85907 -37.62016,23.61988 -54.90431,28.42438 -40.742967,11.32535 -70.777197,31.39948 -78.080248,75.57562 -1.283844,7.766 -3.748138,18.2038 -1.486114,25.95603 2.239506,7.67508 15.484272,5.04397 21.56636,5.04397 h 69.000002 197 54 c 6.2388,0 16.32809,1.89527 21.94137,-1.17901 8.22916,-4.50696 2.95835,-23.4798 1.63425,-30.82099 -6.90353,-38.27551 -30.80862,-60.82122 -67.57562,-71.57562 -19.57428,-5.72549 -60.88208,-7.77447 -65.53241,-32.42438 -2.70139,-14.31924 9.74164,-20.61126 18.44214,-30 12.20074,-13.16583 27.87579,-34.96722 31.09027,-53 m -61,-246.999995 c -12.86701,-4.185272 -21.99565,-2.743927 -35,-2.263123 -13.42304,0.496277 -26.3618,-0.850799 -40,0.263123 4.32373,-13.265473 12.29127,-23.759644 26,-28.250763 20.78418,-6.8091431 47.9297,6.884186 49,30.250763 m -57,9 c -3.40753,7.308716 -10.24445,12.722168 -14.11034,20 -9.27202,17.455322 -5.9833,31.799865 -2.88966,49.999995 -22.03574,5.23401 -41.34885,22.18186 -54.35957,40 -7.22268,9.89145 -10.05075,26.61503 -22.64043,30 0,-28.65798 4.78592,-54.30484 22.15509,-78 7.65848,-10.44775 17.02029,-18.623896 25.63194,-28.089503 4.80159,-5.277741 7.04248,-12.391266 11.82871,-17.820984 9.3578,-10.615936 21.14245,-13.622467 34.38426,-16.089508 m 134,139.999995 c -10.94504,-2.54248 -11.93826,-12.27908 -17.20371,-21 -7.37497,-12.21481 -16.53015,-23.15759 -27.79629,-31.98535 -17.1882,-13.46811 -38.39676,-20.78766 -60,-22.84488 -7.60526,-0.72424 -15.45018,-0.22494 -23,0.67514 -2.73787,0.32642 -6.99799,1.5485 -9.29707,-0.48764 -4.39518,-3.89248 -3.72712,-13.11709 -3.70217,-18.35727 0.0992,-20.844264 16.49477,-42.515834 37.99924,-44.826381 24.38363,-2.619903 38.81357,13.617524 54.08951,29.822541 8.3443,8.851806 17.59597,16.19272 25.01233,26.00384 18.98635,25.11713 23.89816,52.28666 23.89816,83 m -41,97 9,4 c -6.0557,14.5452 -14.61505,28.0683 -24.8696,40 -6.47977,7.53956 -13.7157,14.51313 -22.1304,19.90973 -39.60364,25.39908 -78.49584,1.18424 -102.57562,-32.90973 -38.94548,-55.1419 -48.81357,-143.18698 20.57562,-179.67977 51.90747,-27.29889 120.41403,-1.93238 139.65588,53.67977 3.72074,10.75354 9.36344,28.39802 6.02622,39.79014 -1.74356,5.95196 -12.43857,8.49548 -16.40357,13.25 -3.00552,3.604 -2.09155,7.81918 -4.30554,11.52084 -2.66217,4.45093 -8.29919,6.34363 -11.23071,10.60956 -1.92862,2.80649 -1.10843,6.63434 -3.34568,9.19519 -4.01519,4.59607 -19.11276,7.48288 -17.4259,15.61963 2.677,12.91266 21.47659,-2.39286 27.0293,-4.98536 m 160,-103 2,5 -14,7 -2,-5 14,-7 m -299,6.46375 c -5.51924,0.97559 -21.60121,9.98206 -8.94136,14.92902 5.78209,2.2594 13.82625,-2.10349 19.94136,-1.93677 7.42224,0.20236 16.00072,6.82306 22.98071,5.21069 8.49227,-1.9617 4.3304,-11.22888 -0.99614,-13.88119 -9.83807,-4.89881 -22.17207,-6.233 -32.98457,-4.32175 m 112,-0.0247 c -5.5452,0.8732 -13.58579,2.69559 -17.56636,6.95447 -3.06858,3.28311 -2.83565,8.98913 1.67515,10.86032 6.72939,2.7915 17.51062,-4.59662 24.89121,-4.79785 6.07284,-0.16559 13.08453,3.65307 18.95602,2.0957 6.93991,-1.84079 5.47769,-10.17093 0.0247,-12.74768 -7.94556,-3.75458 -19.45935,-3.70682 -27.98071,-2.36496 m 156,-0.43906 c 3.08618,4.66398 11.92608,15.09916 11.00308,20.89582 -0.66437,4.17236 -7.79449,6.686 -11.00308,8.52548 -11.92572,6.83704 -24.07654,15.87436 -37,20.5787 l -12,-22 9,-4 c 2.44714,5.14237 13.95401,16.71094 15.54938,3.99537 0.49716,-3.96259 -3.07129,-8.46292 -4.54938,-11.99537 l 7,-4 h 1 c 2.30777,3.17338 4.39874,8.01331 8.09335,9.77701 12.19354,5.82083 5.98917,-12.81823 3.90665,-16.77701 l 9,-5 m -313,15 c -1.14972,14.56803 -3.46745,28.47623 0,43 -18.028169,-6.18066 -15.683885,-35.66592 0,-43 m 223,0 c 9.08163,6.53647 12.81164,15.04468 1,20 l -1,-20 m -181.98457,17.67746 c -7.96355,1.54053 -5.77456,9.88193 -0.97146,13.53318 6.89698,5.24298 16.56948,7.03341 24.95603,5.10882 6.05289,-1.38907 24.99379,-13.67685 10.95602,-18.53396 -6.00079,-2.0763 -11.78727,5.12808 -17.95602,5.12808 -6.09694,0 -11.03652,-6.38675 -16.98457,-5.23612 m 105.02854,0.15897 c -7.29155,2.30566 -4.82031,10.5047 0,13.69598 8.09043,5.35627 18.70133,7.21277 27.95603,3.91898 5.57522,-1.98425 20.0238,-14.70978 6.95602,-17.69366 -6.4815,-1.47998 -11.89535,6.00885 -18.95602,5.02545 -5.20679,-0.72519 -10.58661,-6.64463 -15.95603,-4.94675 m 105.95603,2.16357 12,23 -49,27 -12,-22 c 2.24124,-1.17108 5.22128,-3.43612 7.89505,-3.00308 3.86999,0.6268 4.86343,6.06992 8.2099,7.80863 5.9577,3.09546 10.65603,-3.4292 8.4668,-8.80555 -1.12247,-2.75659 -2.6673,-5.14187 -3.57175,-8 l 8,-4 c 1.30347,1.96766 2.49084,4.07203 3.90588,5.96064 3.80533,5.07885 13.12848,5.3583 12.55246,-2.9614 -0.22818,-3.2955 -4.00503,-6.44653 -3.01236,-9.78937 0.78549,-2.6452 4.36164,-4.03176 6.55402,-5.20987 m -147,56 c -6.61545,0.15992 -17.17514,8.8349 -6.89121,13.25773 2.3978,1.03122 5.34616,0.73901 7.89121,0.74227 20.68468,0.0266 11.05015,-18.97155 10.08951,-33 -0.35158,-5.13412 2.14483,-13.35763 -0.28318,-17.8912 -2.6007,-4.85605 -9.08886,-4.57785 -11.79321,0 -3.06325,5.18539 -2.39236,14.12619 -1.84337,19.8912 0.53842,5.65412 1.11765,11.58429 2.83025,17 m 92,-11 1,4 -6,1 5,-5 m -107.95603,46.6775 c -7.48561,1.49374 -5.42154,10.06475 -0.98919,13.53701 7.90228,6.19065 19.08127,9.20829 28.94522,7.11652 5.79098,-1.22806 31.88724,-12.74896 16.94136,-20.11191 -7.0658,-3.48086 -17.38782,7.6322 -25.94136,6.59491 -6.48229,-0.78607 -12.47543,-8.42975 -18.95603,-7.13653 m 55.95603,50.3225 c 5.45666,42.95066 54.6467,41.21363 87,53.42518 33.18262,12.52453 46.32272,38.65197 49,72.57482 H 49.896138 c 0.355027,-42.88833 26.352112,-67.59448 66.000002,-78.11572 26.72503,-7.09198 68.25932,-11.18731 69,-46.88428 7.52824,1.29627 14.41183,5.10904 22,6.54014 17.05086,3.21569 31.37529,-1.04364 47,-7.54014 z"
       id="path1" />
  </g>
</svg>
