<?xml version="1.0" encoding="UTF-8" standalone="no"?>
<!-- Created with Inkscape (http://www.inkscape.org/) -->

<svg
   version="1.1"
   id="svg1"
   width="512"
   height="512"
   viewBox="0 0 512 512"
   sodipodi:docname="3828745.png"
   xmlns:inkscape="http://www.inkscape.org/namespaces/inkscape"
   xmlns:sodipodi="http://sodipodi.sourceforge.net/DTD/sodipodi-0.dtd"
   xmlns="http://www.w3.org/2000/svg"
   xmlns:svg="http://www.w3.org/2000/svg">
  <defs
     id="defs1" />
  <sodipodi:namedview
     id="namedview1"
     pagecolor="#ffffff"
     bordercolor="#000000"
     borderopacity="0.25"
     inkscape:showpageshadow="2"
     inkscape:pageopacity="0.0"
     inkscape:pagecheckerboard="0"
     inkscape:deskcolor="#d1d1d1">
    <inkscape:page
       x="0"
       y="0"
       width="512"
       height="512"
       id="page2"
       margin="0"
       bleed="0" />
  </sodipodi:namedview>
  <g
     inkscape:groupmode="layer"
     inkscape:label="Image"
     id="g1">
    <path
       style="fill:#050505;stroke:none"
       d="m 141,345 c 43.18985,28.48816 96.28076,57.1601 149,41.27856 29.16122,-8.78476 54.61099,-28.4909 82,-41.27856 0,24.41919 1.51749,49.69727 3.83023,74 0.99872,10.49475 -0.8801,20.59073 7.27472,28.90662 6.76675,6.90045 16.03256,11.95254 23.89505,17.51776 16.69595,11.81772 33.33551,23.71374 50,35.57562 4.99808,3.55765 23.99585,19.26617 25.41669,3.99692 0.79837,-8.57959 -15.54996,-15.9531 -21.41669,-20.13812 -16.63733,-11.8682 -33.16272,-23.93564 -50,-35.51774 -6.17484,-4.24758 -17.44171,-9.61196 -19.56635,-17.34182 -2.38845,-8.68973 -1.2276,-19.99228 -1.4483,-28.99924 -0.33407,-13.63446 -1.42712,-27.35406 -2.02472,-41 -0.33404,-7.62775 -3.68768,-19.77588 -0.76309,-27 3.08499,-7.62036 13.09177,-13.75266 18.3634,-20 11.04084,-13.08435 19.73325,-28.10693 26.03861,-44 13.65002,-34.40582 15.89602,-74.67871 21.98688,-111 0.97616,-5.82104 0.90966,-14.16135 4.84643,-18.86728 4.03751,-4.82635 11.51248,-6.2999 16.56714,-9.92129 9.2421,-6.62149 14.60928,-16.41983 17.37036,-27.21143 1.35367,-5.290802 3.99655,-14.572968 -2.42898,-17.641968 -10.85929,-5.186676 -13.81006,20.663148 -18.47071,26.638118 -6.8775,8.81699 -19.06057,9.54978 -25.6813,18.0972 -9.1276,11.78379 -4.17026,29.86664 -10.30326,42.85187 -2.95694,6.26068 -13.58102,5.1286 -14.14892,13.05863 -0.46347,6.47192 5.58154,8.43826 10.66281,6.99615 -1.38571,67.1239 -35.91519,127.7355 -99,154 -0.44406,-5.83743 -6.03381,-10.76825 -11.69678,-6.25772 -5.42541,4.32132 -2.07123,12.57822 -8.358,17.01388 -30.99252,21.86698 -85.90312,25.80072 -115.66667,-1.39044 -4.43039,-4.04748 -1.94948,-10.7449 -5.84259,-14.93207 C 186.16116,336.76044 179.46822,341.84521 179,348 115.89674,321.72787 81.385323,261.11545 80,194 c 5.36586,1.52289 12.012054,-1.14554 10.522377,-7.98456 C 88.988327,178.97272 79.43232,179.90948 76.513885,173.89505 70.664108,161.8396 74.501213,145.93469 68.081024,134.00385 62.439747,123.52045 48.817787,122.82916 41.328705,113.98535 29.422623,99.925507 28.899893,74.49765 25.399691,57 23.88188,49.412415 20.836218,40.762848 21.132717,33 21.393414,26.1745 26.015265,20.007446 32.000771,17 44.906174,10.515625 51.711735,26.035278 62.984566,23.523132 71.10746,21.712952 69.087051,12.826111 63.956017,9.0933533 42.712753,-6.3608398 10.514993,-0.24993896 6.3001542,29 3.4508734,48.773315 13.499892,74.536072 17.399691,94 c 2.648821,13.22031 6.121973,25.5275 16.604169,34.81482 6.056668,5.36627 18.464211,7.28738 21.382714,15.20062 3.600483,9.76236 3.995586,21.73279 5.693672,31.98456 4.85733,29.32498 7.327614,60.79282 16.998459,89 6.221641,18.14682 15.991501,35.34174 28.360335,50 5.57871,6.6113 14.26013,12.06433 18.86806,19.28549 2.08141,3.26181 0.69458,8.98624 0.6929,12.71451 -0.005,11.67508 -1.45053,23.35046 -1.96065,35 -0.24699,5.64069 -0.86923,15.09927 6.96373,15.66281 6.20142,0.44617 7.85152,-5.75189 7.98226,-10.66281 C 139.35809,372.99826 141,359.00925 141,345 M 467,0.46450806 C 459.8472,1.7541504 450.31787,5.7628784 445.43365,11.328705 c -3.65393,4.163818 -2.15072,10.916931 3.58179,12.194427 13.12232,2.924286 20.41159,-16.0108334 34.89121,-3.990722 12.80554,10.630371 3.39178,26.1026 2.4259,39.46759 -0.38721,5.357971 2.93866,9.665222 8.62808,8.756165 C 503.31683,66.421021 503.49579,49.575562 504.80017,43 509.39398,19.842163 492.47748,-4.1290283 467,0.46450806 M 228.04398,70.757721 C 216.88527,74.933167 226.02097,100.13382 221.42825,109 c -7.89267,15.23666 -26.87558,25.591 -23.32872,45 2.20252,12.05252 13.01232,19.4422 24.90047,18.95987 4.0847,-0.16574 9.06056,-2.95212 13,-1.8125 8.81694,2.5506 12.53104,9.95862 23,8.66745 7.14587,-0.88132 11.42645,-7.99924 18,-8.875 9.40564,-1.25308 16.39914,4.56302 25.99924,-1.16437 2.86053,-1.70657 5.2818,-4.06567 7.20059,-6.7793 C 326.92264,139.34613 294.28302,125.53647 289.41898,106 c -1.98496,-7.972534 5.00213,-34.770081 -7.42206,-35.662811 -5.17755,-0.37204 -7.67121,4.167114 -7.95294,8.662811 -0.67991,10.848999 -2.17447,25.9144 2.30477,36 4.66947,10.51392 22.60364,22.33331 22.58487,34 -0.024,14.90359 -19.29803,4.58588 -26.93362,6.78937 -5.55334,1.60257 -9.50375,7.50815 -15,8.50229 -5.69633,1.03033 -11.5555,-6.93113 -17,-8.50229 -7.16757,-2.06842 -13.31747,3.4151 -19.99614,1.76153 -6.27765,-1.55429 -8.35724,-8.27887 -5.37578,-13.5509 6.48235,-11.46255 18.89734,-19.90308 22.44445,-33 2.5063,-9.25397 2.44346,-24.55719 0.69908,-33.996155 -0.83361,-4.510681 -5.05574,-7.994293 -9.72763,-6.246124 M 108.01929,192.75772 c -5.18329,1.9017 -6.16411,8.07492 -2.70139,12.03241 4.77307,5.45508 24.33537,20.52411 31.5733,17.4668 4.98517,-2.10575 4.63382,-8.44498 1.67516,-12.08332 -4.70181,-5.78192 -22.59129,-20.3348 -30.54707,-17.41589 M 399,192.71451 c -8.09424,2.3844 -21.49866,11.50635 -26.25772,18.45602 -3.90131,5.69712 0.29977,12.86823 7.25772,11.51081 6.53076,-1.27411 23.54669,-13.24631 27.39661,-18.78553 4.15036,-5.97149 -1.68406,-13.15869 -8.39661,-11.1813 m -163,17.81558 c -9.47409,2.14008 -25.92534,11.92184 -32.56636,18.99847 -3.91539,4.17222 -2.58652,11.70536 3.57098,12.71372 9.97664,1.63376 20.97753,-12.24661 29.99538,-15.32098 6.2892,-2.14411 12.55025,4.84173 19,5.02008 6.64178,0.18365 11.74881,-5.90937 18,-5.60187 10.93945,0.53811 21.50739,19.26694 32.98071,15.67361 4.95273,-1.55114 6.2435,-7.71682 3.27701,-11.68442 -3.95126,-5.28466 -12.67541,-8.77954 -18.25772,-12.12887 -6.24368,-3.74616 -13.25049,-9.24442 -21,-7.85568 -5.15646,0.92404 -9.6666,5.99023 -15,5.62808 -7.39458,-0.50211 -11.86205,-7.2804 -20,-5.44214 m -85.8912,20.49844 c -9.6467,5.35779 7.42791,30.07911 12.52854,35.69214 2.1507,2.36676 5.33602,3.30973 8.31868,1.9213 11.96706,-5.57071 -5.21774,-28.73487 -10.42361,-34.58335 -2.62854,-2.953 -6.53044,-5.19238 -10.42361,-3.03009 m 204.93057,0 c -7.75885,4.00855 -16.36151,20.63532 -18.20679,28.97147 -1.24557,5.62695 4.40411,11.37793 10.06247,8.64197 5.69897,-2.75562 17.18274,-23.46759 18.49231,-29.64197 1.26297,-5.95471 -4.86484,-10.80429 -10.34799,-7.97147 m -126.02008,17.72919 c -11.42026,4.19 -0.44091,14.55716 4.98071,17.78934 11.60538,6.91876 25.44046,8.51932 38,3.11499 4.99765,-2.15051 12.35892,-5.66242 14.97147,-10.70218 2.41238,-4.65369 -0.76471,-10.22827 -5.97223,-10.62344 -9.4158,-0.71451 -16.33945,10.63778 -26.99924,9.47531 -7.97026,-0.86917 -17.40085,-11.83502 -24.98071,-9.05402 m -53.97531,34.02777 c -9.12693,3.16275 -3.19385,31.29413 -0.0386,38.10959 1.53125,3.3075 5.30188,5.5838 8.95062,4.31943 9.48273,-3.28604 3.23514,-31.20493 0.0386,-38.10959 -1.53125,-3.3075 -5.3019,-5.5838 -8.95062,-4.31943 m 157.99923,-0.0887 c -8.52975,2.27588 -10.5791,27.78546 -9.91974,35.30246 0.39869,4.54519 3.92637,8.61325 8.83332,7.30398 8.13467,-2.17047 10.96637,-29.00866 9.80014,-36.29937 -0.6723,-4.20289 -4.33328,-7.47587 -8.71372,-6.30707 M 127.05478,415.75772 c -8.16598,3.09726 -3.45607,16.96661 -10.09876,22.77777 C 94.807777,457.91122 67.947243,473.45901 44,490.5787 c -4.033222,2.88334 -10.383133,5.91932 -12.666668,10.51465 -2.383991,4.79752 1.222801,10.83588 6.670525,10.58411 C 46.411469,511.28891 56.338303,500.63803 63,496.02469 78.446144,485.328 93.715569,474.34802 109,463.4213 c 7.66977,-5.48307 17.78382,-10.67652 23.36188,-18.42515 4.11255,-5.71289 9.66664,-34.91778 -5.3071,-29.23843 z"
       id="path1" />
  </g>
</svg>
