<?xml version="1.0" encoding="UTF-8" standalone="no"?>
<!-- Created with Inkscape (http://www.inkscape.org/) -->

<svg
   version="1.1"
   id="svg1"
   width="512"
   height="512"
   viewBox="0 0 512 512"
   sodipodi:docname="4148421.png"
   inkscape:export-filename="/mnt/SSD EXTRA/Documentos/Projetos/drapaola/public/assets/4148421.png"
   inkscape:export-xdpi="96"
   inkscape:export-ydpi="96"
   xmlns:inkscape="http://www.inkscape.org/namespaces/inkscape"
   xmlns:sodipodi="http://sodipodi.sourceforge.net/DTD/sodipodi-0.dtd"
   xmlns="http://www.w3.org/2000/svg"
   xmlns:svg="http://www.w3.org/2000/svg">
  <defs
     id="defs1" />
  <sodipodi:namedview
     id="namedview1"
     pagecolor="#ffffff"
     bordercolor="#000000"
     borderopacity="0.25"
     inkscape:showpageshadow="2"
     inkscape:pageopacity="0.0"
     inkscape:pagecheckerboard="0"
     inkscape:deskcolor="#d1d1d1">
    <inkscape:page
       x="0"
       y="0"
       width="512"
       height="512"
       id="page2"
       margin="0"
       bleed="0" />
  </sodipodi:namedview>
  <g
     inkscape:groupmode="layer"
     inkscape:label="Image"
     id="g1">
    <path
       style="fill:#050505;stroke:none"
       d="m 266,64 c -45.69002,0.378174 -85.97783,40.11145 -95.57484,83 -4.44814,19.87848 -0.76983,39.94342 -2.4838,60 -1.14699,13.42191 -14.93077,21.28979 -12.50232,37 2.03702,13.17798 9.12647,24.47491 21.56096,30.0957 4.02545,1.81961 10.06424,1.46039 13.56636,3.92823 3.28888,2.31756 3.99971,11.59326 2.39119,14.97607 C 183.29372,313.32349 159.73128,311.53241 143,321.4537 124.07877,332.67361 108.48779,353.51221 93,369 82.744965,379.25504 60.534157,395.21805 77,410 v 1 l -19,19 h -1 c -3.839828,-5.44687 -20.477322,-15.59183 -18.727623,-1 1.110088,9.25769 19.44006,24.28436 26.727623,29.56635 3.239471,2.34796 7.480789,3.08557 10.56636,0 C 83.09082,451.0419 69.764488,446.58142 70.631172,440 71.492271,433.461 83.195091,426.40152 87,421 h 1 c 15.88542,19.15613 36.19769,-10.19769 47,-21 13.53864,-13.53864 32.08455,-27.29474 41.66281,-44 6.69571,-11.67786 6.68402,-29.15344 15.44599,-39 8.40531,-9.44574 17.95802,-18.05188 26.8912,-27 3.0954,-3.10059 8.54321,-7.13947 8.54321,-11.99924 0,-14.44534 -16.69755,-1.81418 -20.54321,1.99924 v -65 c 29.21858,-4.31522 75.14957,-22.19501 89,-50 h 2 c 10.48462,24.76266 45.22552,37.29568 69,44.1412 6.65247,1.91547 13.13708,4.84522 20,5.8588 0,26.79135 3.33069,56.03888 -4.43826,82 -11.99604,40.08661 -54.91013,68.5361 -96.56174,62.57178 -19.81259,-2.8371 -37.80057,-11.37387 -51.99924,-25.57254 -4.26312,-4.26313 -11.38911,-16.08741 -18.78703,-11.81638 -9.7224,5.61304 2.33421,17.32828 6.79013,21.81638 6.36638,6.41238 19.86777,12.30264 23.96835,20.04397 C 248.5925,368.98993 247,377.53812 247,383 c 0,5.12189 0.91661,11.72357 -3.27855,15.56635 C 239.27199,402.64209 230.55684,401 225,401 c -16.12521,0 -32.95168,-1.38327 -49,0.16974 -41.92117,4.05682 -56.35718,36.76514 -65.37346,72.83026 -2.22399,8.89597 -8.19468,21.86084 -7.05864,30.99615 1.07791,8.66791 11.50054,8.15943 14.41435,0.98841 C 129.48413,477.67798 125.35025,442.83432 154,424.10107 174.12668,410.94083 203.0889,416 226,416 c 12.13657,0 26.8905,1.0556 33.08026,-12 C 263.66888,394.32159 261,379.50504 261,369 c 24.12997,7.71579 47.85687,7.72 72,0 0,13.82413 -4.29288,34.20361 9.00385,43.14584 C 349.29056,417.04626 358.67493,416 367,416 c 17.15326,0 36.05377,-2.22842 53,0.43903 38.9454,6.13031 43.13391,43.53372 52,74.56097 1.46561,5.12894 7.3399,31.13135 16.89581,17.60571 5.52796,-7.8244 -4.40408,-29.1326 -6.52237,-37.60571 C 473.62323,435.99915 459.49554,407.08643 420,401.42822 402.60574,398.93631 383.57092,401 366,401 c -6.89172,0 -15.98526,1.39139 -18.42749,-7.00385 -1.84222,-6.33276 -2.90347,-25.03506 0.45526,-30.78628 3.61701,-6.19345 14.49408,-10.71054 19.97147,-15.49924 9.57327,-8.36957 17.09741,-19.39938 22.75232,-30.71063 3.93438,-7.86975 6.72445,-16.40228 8.58639,-25 0.81052,-3.74258 0.43463,-10.56735 3.26465,-13.39737 C 405.64853,275.5567 413.01224,275.90469 417,274.0957 427.47443,269.34409 436.01355,258.43698 437.69907,247 440.03934,231.12015 433.51172,214.93436 419,207.12421 410.6969,202.65552 402.60233,204.40802 394,201.95987 365.07355,193.72763 335.28186,184.32721 314.04013,162 c -13.06943,-13.73727 -9.00101,-27.72311 -10.08411,-45 -0.27685,-4.41638 -2.7752,-9.02432 -7.95217,-8.2384 -6.90897,1.04882 -6.99521,8.86358 -7.00385,14.2384 -0.0284,17.72644 0.34744,28.15762 -12.17053,41.99924 C 253.09819,191.23984 215.1727,196.34027 183,204 183,172.79953 181.25694,143.69458 200.42824,117 225.13676,82.595215 261.02948,78 300,78 c 28.53455,0 54.01553,2.542084 77,21.463745 20.89291,17.199825 33.99655,43.417665 34,70.536255 7.9e-4,6.20044 -0.32434,17.09052 8.98456,15.75232 C 427.20053,184.715 426,176.37845 426,171 426,156.83752 423.56079,143.14639 418.13889,130 403.66156,94.897064 367.38116,64.325958 328,64 c 4.41602,-9.458405 9.12585,-18.104248 7.71063,-29 -6.23095,-47.971863 -78.65445,-43.595459 -77.69519,5 0.18146,9.192017 4.22559,15.948914 7.98456,24 m 27,-48.699066 c 30.6832,-4.521912 38.87869,42.837433 8,47.398132 -30.84335,4.555481 -38.88458,-42.846527 -8,-47.398132 M 110.01929,217.78625 c -7.78098,2.59925 -7.02494,30.5366 -4.4159,37.16977 1.30738,3.32383 4.85987,5.28275 8.35263,4.3472 8.13788,-2.17968 6.48818,-29.47983 4.72608,-36.28778 -0.96877,-3.74289 -4.76899,-6.52994 -8.66281,-5.22919 M 192,217 v 46 c -5.79565,-1.5033 -11.37071,-2.62592 -15.6713,-7.18518 C 161.68242,240.28763 174.22081,220.67944 192,217 m 211,0 c 5.5896,1.94217 10.66599,3.45731 14.78705,8.04321 C 431.80273,240.6398 418.68942,258.66925 402,263 c 0,-13.00351 -4.00977,-34.06107 1,-46 M 54.058643,247.03162 c -12.774753,6.80172 14.689312,34.78903 23.832562,29.78552 12.694671,-6.94702 -14.764496,-34.61368 -23.832562,-29.78552 M 294.1088,246.74615 c -7.6756,3.18183 -7.40653,38.56922 4.87191,34.4676 8.90998,-2.97638 8.73712,-40.10907 -4.87191,-34.4676 M 25.133488,302.02777 c -4.92284,2.83789 -4.30752,10.28342 0.921295,12.36884 6.100498,2.43307 29.022678,2.93335 34.601082,-0.57563 4.887974,-3.07464 3.742191,-10.7994 -1.699845,-12.38733 -6.716293,-1.95977 -27.740982,-2.91168 -33.822532,0.59412 m 257.881952,13.64972 c -6.84122,1.32111 -6.77994,8.98999 -2.86731,13.22839 5.52317,5.98304 14.04221,8.11817 21.85187,6.42438 6.54846,-1.42029 22.78101,-12.88025 10.8912,-18.99692 -6.16046,-3.16922 -10.12753,4.2114 -15.8912,4.2114 -5.1814,0 -8.52771,-5.92105 -13.98456,-4.86725 M 171,327 c -2.26996,27.79102 -31.74371,47.74371 -50,66 -4.23335,4.23334 -16.16245,20.82819 -22.830246,17.23843 C 78.322861,399.55338 94.578629,388.42139 105,378 c 19.52806,-19.52808 37.69804,-45.14279 66,-51 m 13,125.53317 C 165.76616,456.96503 171,483.1622 171,497 c 0,5.69611 -0.15204,16.73859 8.95602,14.30325 14.0335,-3.75235 1.08045,-33.00686 7.07177,-41.98535 4.46914,-6.69739 20.00917,0.44303 26.57792,-4.40741 4.49501,-3.31915 3.52471,-10.27182 -1.64969,-12.3071 -6.46504,-2.5429 -21.24673,-1.70092 -27.95602,-0.0702 m 58.1088,0.20911 c -6.08623,2.61752 -4.6166,11.15732 0.91049,13.3642 C 251.24748,469.39191 264.21967,467 273,467 h 90 c 12.37164,0 29.02582,-2.95432 40.94138,0.3179 4.48492,1.23163 4.05087,5.91608 4.05862,9.6821 0.0176,8.55676 -0.74677,17.48492 0.10495,26 0.50446,5.04318 4.12277,10.35437 9.87576,8.24228 C 424.74921,508.75735 423,499.6687 423,494 423,480.80005 427.28238,459.63034 412,453.22839 401.45892,448.81262 384.33273,452 373,452 h -88 c -11.81308,0 -32.03181,-3.92804 -42.8912,0.74228 z"
       id="path1" />
  </g>
</svg>
