<?xml version="1.0" encoding="UTF-8" standalone="no"?>
<!-- Created with Inkscape (http://www.inkscape.org/) -->

<svg
   version="1.1"
   id="svg1"
   width="512"
   height="512"
   viewBox="0 0 512 512"
   sodipodi:docname="6187035.png"
   xmlns:inkscape="http://www.inkscape.org/namespaces/inkscape"
   xmlns:sodipodi="http://sodipodi.sourceforge.net/DTD/sodipodi-0.dtd"
   xmlns="http://www.w3.org/2000/svg"
   xmlns:svg="http://www.w3.org/2000/svg">
  <defs
     id="defs1" />
  <sodipodi:namedview
     id="namedview1"
     pagecolor="#ffffff"
     bordercolor="#000000"
     borderopacity="0.25"
     inkscape:showpageshadow="2"
     inkscape:pageopacity="0.0"
     inkscape:pagecheckerboard="0"
     inkscape:deskcolor="#d1d1d1">
    <inkscape:page
       x="0"
       y="0"
       width="512"
       height="512"
       id="page2"
       margin="0"
       bleed="0" />
  </sodipodi:namedview>
  <g
     inkscape:groupmode="layer"
     inkscape:label="Image"
     id="g1">
    <path
       style="fill:#050505;stroke:none"
       d="m 181,374 c 29.67438,0 77.33228,15.7193 98.19983,-14.00076 6.53818,-9.31183 3.24621,-17.80088 4.10263,-27.99924 0.38565,-4.59222 3.573,-8.45972 4.36884,-13 0.87335,-4.98239 -1.11228,-9.74414 -0.57407,-14.57562 0.68628,-6.16056 2.40854,-12.08914 2.96139,-18.42438 0.4881,-5.5932 5.08735,-7.75137 7.97223,-12.03937 3.5679,-5.30316 4.62766,-11.72967 3.50464,-17.96063 -3.93246,-21.81888 -26.78506,-35.9834 -29.35031,-58 -1.93429,-16.60141 5.33322,-33.84052 3.64505,-51 -2.02219,-20.55475 -13.24332,-32.3613 -21.96603,-49.714508 -3.59623,-7.154419 7.5541,-20.353943 -3.88272,-24.527771 -6.53934,-2.386505 -9.63541,4.074005 -10.77005,9.242279 -4.95948,22.59018 -14.83782,42.69806 -30.38196,60 -18.54245,20.63931 -41.73137,37.77737 -57.31018,61 -15.37009,22.91147 -19.46405,51.19089 -14.07021,78 6.26743,31.151 27.36743,57.54803 28.09567,90 0.40178,17.90445 -10.08293,34.87622 -21.13502,48 -3.77074,4.47754 -12.02533,11.50635 -5.97609,17.56635 7.43826,7.45147 16.39908,-4.34504 20.5625,-9.56635 C 170.8622,412.11884 180.83861,393.49377 181,374 m 66,-260 c 9.39401,13.93634 15.0759,30.98196 13.91049,48 -1.1875,17.34039 -7.90991,33.08746 -0.89889,50 4.99603,12.05182 13.09555,21.92108 19.7847,33 2.84054,4.70465 7.22116,11.15082 5.87115,16.98456 -1.25302,5.4147 -7.85907,6.2807 -10.1713,11.05865 -2.88598,5.96356 2.5926,15.8433 -3.0849,20.87116 -6.05719,5.3641 -28.78826,1.88421 -27.74922,13.08178 1.16599,12.5655 21.4984,4.28037 28.33797,6.00385 -1.27121,5.29022 -5.32465,9.62469 -5.89044,15 -0.88141,8.37354 3.92731,16.29614 -1.91281,23.82639 -13.10414,16.89645 -46.1966,9.58297 -64.19675,7.4591 -5.28136,-0.62314 -14.86322,1.3031 -19.25848,-2.30942 C 177.07375,353.13959 175.40781,336.03775 173,330 162.0016,302.42072 149.10596,277.62988 152.17053,247 155.11061,217.61447 175.55663,190.16284 204,181.72067 c 9.61993,-2.85525 20.00444,-3.71618 30,-3.72067 4.5423,-0.002 10.25658,0.57022 12.81712,-4.1088 3.02555,-5.52874 -1.75932,-9.89993 -6.81788,-10.95217 C 230.59486,160.98279 220.46776,163.25278 211,164 L 233.27855,137 247,114 m 102,2.74075 c -14.37259,0.21445 -12.16092,15.71189 -18.84335,23.84104 -7.56089,9.19775 -29.76444,5.99218 -24.723,24.41821 3.22706,11.79459 18.54285,8.85089 24.8642,17.13272 6.09668,7.98749 5.08435,23.24359 18.70215,23.26544 15.53659,0.0249 12.09445,-17.05429 20.41821,-24.74923 5.58667,-5.16465 14.87223,-4.3859 20.35724,-9.87348 3.55069,-3.55234 4.90119,-8.9837 3.41977,-13.77545 -3.67789,-11.89645 -17.62796,-8.49539 -24.49615,-16.39352 C 361.57703,132.41647 363.82684,116.51953 349,116.74075 m -168,5.98148 c -4.98012,0.51996 -9.30437,5.09851 -13,8.08102 -8.49112,6.85266 -16.96892,13.72553 -25,21.11109 C 115.23717,177.44565 95.02327,207.92783 90.28627,246 c -2.516281,20.22385 0.930489,40.88486 -1.710655,61 -1.897514,14.45163 -2.917732,27.29944 -11.123451,40 -4.896653,7.57889 -15.286557,13.95801 -18.590279,22.03937 -2.103668,5.14581 1.551788,10.74304 7.138886,10.74304 6.415084,0 11.95594,-7.53064 15.909721,-11.78241 13.043465,-14.02655 20.690898,-31.90112 21.999998,-51 3.0567,-44.59479 -3.68338,-87.54767 24.98534,-126 16.12349,-21.62589 37.98045,-34.98981 56.97069,-53.43906 5.23445,-5.08532 4.43013,-15.80935 -4.86652,-14.83871 M 350,137 358.13272,154.29785 373,161 357.27469,168.41898 349,185 340.86652,168.39352 326,161 341.72531,152.78625 350,137 m -113,71.69986 c -7.00484,2.23733 -12.32095,6.64648 -20,7.20987 -6.55624,0.48102 -19.62968,-3.69537 -24.56636,1.40817 -5.20046,5.37622 -0.21986,11.71332 5.56712,13.23844 10.74822,2.83261 23.56041,2.09811 33.99924,-1.64661 4.75609,-1.70615 12.19475,-4.48291 14.82098,-9.09491 4.07358,-7.15372 -2.7185,-13.38348 -9.82098,-11.11496 m 165,7.95291 c -8.78583,2.74506 -8.07385,10.9975 -12.8179,17.12268 -3.38608,4.37186 -9.8486,4.67075 -14.13812,7.87348 -7.09626,5.29837 -7.09629,16.40377 0,21.70214 4.04373,3.01923 9.92166,3.38605 13.45681,7.06714 6.84955,7.13233 6.95343,22.47284 21.49921,17.92902 8.75549,-2.73505 8.20187,-10.95496 12.84259,-17.12268 6.14584,-8.16818 27.31622,-9.21881 18.0679,-25.21991 -1.01303,-1.75272 -2.35336,-3.26776 -3.95447,-4.50543 -3.98767,-3.08249 -9.96408,-3.23786 -13.44601,-6.91819 C 416.67627,227.35788 416.68896,212.06332 402,216.65277 M 406,237 c 5.06433,7.62631 6.66553,11.82153 16,15 v 1 c -9.43756,3.19379 -10.87201,7.27783 -16,15 -4.97668,-7.86945 -6.51932,-11.90887 -16,-15 v -1 c 9.3916,-3.17825 11.04968,-7.17221 16,-15 m -63,38.56174 c -9.83221,2.4628 -8.49835,11.64032 -13.8179,18.04474 -3.42459,4.12301 -9.82706,4.32269 -14.07715,7.36264 -7.61343,5.44564 -6.39392,17.29895 0.91049,22.32873 3.84183,2.64545 9.1474,2.90439 12.56558,6.20136 7.15757,6.90377 6.61127,22.62713 21.41898,18.54324 9.38351,-2.58792 8.33444,-11.64243 13.64893,-17.76776 3.60928,-4.15997 9.99289,-4.5455 14.24612,-7.91281 7.23413,-5.72727 6.2045,-16.41608 -0.93826,-21.71295 -3.76053,-2.7887 -9.13654,-2.95398 -12.53858,-6.15894 C 357.17548,287.66681 357.56006,271.91467 343,275.56174 M 347,296 l 15,17 c -8.87067,2.10803 -12.26556,6.61328 -15,15 h -1 c -3.59216,-9.25891 -7.11737,-12.043 -16,-16 z"
       id="path1" />
  </g>
</svg>
