<?xml version="1.0" encoding="UTF-8" standalone="no"?>
<!-- Created with Inkscape (http://www.inkscape.org/) -->

<svg
   version="1.1"
   id="svg1"
   width="512"
   height="512"
   viewBox="0 0 512 512"
   xmlns="http://www.w3.org/2000/svg"
   xmlns:svg="http://www.w3.org/2000/svg">
  <defs
     id="defs1" />
  <g
     id="g1">
    <path
       style="fill:#050505;stroke:none"
       d="m 137,231 c -22.95703,11.91052 -21.71651,47.07449 -2,61.21143 7.35735,5.27526 23.00546,4.26577 26,12.78857 L 132,300.62268 102,312.5787 51,335 46,322 c -21.715057,2.17627 -8.279728,20.13092 -3,33 l -23,9 C 16.642403,349.86438 12.533445,348.85797 0,354 l 31,74 14,-5 -7,-18 c 6.315899,-1.08752 14.605331,-7.89099 20.867283,-6.86804 C 64.839378,399.10751 69.319923,417.97278 72,423 l 13,-5 -5,-15 c 18.208458,-4.32498 36.92337,-14.99719 54,-22.69446 8.70531,-3.92389 19.49153,-6.64303 26.98457,-12.69598 6.19277,-5.00257 5.24694,-13.24054 10.33255,-17.96063 11.2985,-10.48645 18.84142,-0.29944 27.68288,7.06558 3.58498,2.98633 8.68286,5.69687 10.39661,10.28934 C 211.59726,372.90118 210,381.75836 210,388 c 0,4.3186 1.64339,13.03815 -1.60339,16.41125 -2.83281,2.94306 -9.58588,3.02656 -13.39661,3.78858 -11.98627,2.39697 -24.01112,4.60254 -36,7 C 110.61325,424.87595 49.526051,426.38019 32.72068,483 29.951771,492.32886 29.001068,502.30399 29,512 h 15 c 0,-8.2326 0.574028,-16.0788 3.025463,-24 C 61.825264,440.17816 114.80843,439.10406 156,430.99924 178.2446,426.62238 201.41527,419.79733 224,418 v -44 c 15.87943,4.57281 29.85985,12.82098 47,12.82098 17.23792,0 31.08612,-8.23648 47,-12.82098 v 44 l 84,16 2,-15 -71,-13 c 0,-10.78027 -3.98883,-31.38287 1.02777,-40.96063 C 336.8815,359.591 344.4455,355.71042 349,351.71375 356.18756,345.40646 362.28253,337.75073 367.84491,330 c 5.7178,-7.96729 8.62274,-23.2663 15.6543,-29.39661 3.3385,-2.91061 10.32721,-2.42151 14.50079,-4.0679 9.82245,-3.87478 17.23367,-11.75427 21.0733,-21.53549 4.05414,-10.32767 2.47214,-23.68515 -3.34491,-33 -2.28396,-3.65735 -8.97406,-8.00864 -9.1705,-12.42438 -0.29941,-6.73086 5.59915,-15.76028 6.99228,-22.57562 3.54816,-17.35791 3.95151,-35.52713 1.01465,-53 C 410.23254,128.22504 396.8017,104.10553 377.99924,86.039368 370.27451,78.617126 358.16071,72.998108 351.72763,64.674377 348.67004,60.71817 348.08444,54.57016 346.12732,50 342.89014,42.440704 338.28564,35.944733 334,29 c -3.90369,1.652832 -11.5928,5.768097 -10.54321,11 1.58218,7.886688 9.07531,15.809265 11.50696,24 6.6325,22.341095 -0.74244,47.59967 -17.05326,63.91049 C 290.76349,155.0575 257.61005,143.92178 224,148.28937 207.19455,150.47321 192.97678,158.5412 180,169 v 1 l 10,10 h 1 c 23.5188,-20.34924 51.84152,-18 81,-18 10.754,0 21.04108,-1.60727 31,-5.87268 15.86017,-6.79294 22.4071,-16.65936 40,-7.85727 32.83194,16.42648 29,50.7262 29,81.72995 0,30.76007 2.88852,60.99948 -14.69522,88 C 339.91113,344.70862 303.84537,373.03839 270,371.95679 250.50487,371.3338 230.31523,361.01282 215,349.62192 205.53174,342.57977 197.20619,335.09299 191,325 l 35,-14 -5,-14 -36,14 -6,-14 -4,2 c -7.78825,-24.35666 -8.9393,-59.97552 -3.33487,-85 1.93471,-8.63873 6.72545,-15.754 9.33487,-24 l -12,-8 c -9.67812,15.81302 -14,32.50583 -14,51 h -1 C 148.2285,212.96576 138.5946,195.83002 140.08951,174 144.61539,107.90833 205.22488,56.043365 271,56 V 41 c -20.95264,0.432556 -40.56758,5.462952 -60,13 10.59085,-24.546753 36.74355,-39.628723 63,-38.985352 8.63062,0.211487 17.23053,2.622193 25,6.305573 3.38782,1.60611 8.07666,5.956543 11.98535,5.577148 C 315.65866,26.443756 318.72913,19.831604 320,16 286.26688,-6.7380981 239.5627,-5.395752 211.17053,26.000763 205.10863,32.704102 199.85765,40.601868 196.45293,49 194.47856,53.869995 193.79587,60.557343 190.43672,64.674377 179.89993,77.588531 163.27357,85.448059 152.44908,99 125.07767,133.26816 114.40474,191.25781 137,231 M 353,85 c 53.79767,31.06155 55.99149,97.58044 35,148 h -1 c 0,-35.20279 3.06555,-71.40564 -30,-93.78317 C 350.89774,135.08704 343.97092,132.27209 337,130 L 347.9213,107 353,85 M 206,235 v 14 h 35 v -14 h -35 m 95,0 v 14 h 34 v -14 h -34 m -157,9 c 8.68013,14.11877 11.86119,23.23383 12,40 -20.68005,-0.94724 -28.84909,-27.84552 -12,-40 m 242,40 1.85416,-24 L 397,245 c 19.10559,9.10443 7.44946,38.04285 -11,39 M 94,332 c 9.80603,-3.80441 19.33438,-8.28522 29,-12.4213 3.7378,-1.59945 8.77318,-4.82699 12.99538,-4.15664 3.50836,0.55707 5.37716,3.65378 6.81094,6.5787 3.35648,6.84726 13.32556,23.38816 10.57562,30.95603 -3.04161,8.3706 -23.74237,13.20767 -31.38194,16.46451 -2.77659,1.18368 -7.45792,4.20941 -10.50078,2.45755 C 108.46291,370.13074 107.15239,364.03595 105.84953,361 101.79266,351.54651 96.826065,341.88577 94,332 m 78,-15 5,14 -13,4 -5,-14 13,-4 M 98,380 74,390 C 67.526009,377.84369 59.338337,361.58032 57,348 L 79.609566,339.70834 85.603394,350 98,380 m -49,-11 5,14 -22,9 C 30.597883,388.5824 26.787573,383.02216 27.813271,379.22455 29.234573,373.96222 44.259716,370.29651 49,369 m 370,54 c -0.44211,3.42337 -3.23239,10.24777 -0.95758,13.26157 2.40247,3.18295 10.33899,3.02722 13.95758,3.73919 11.05615,2.17542 22.1687,4.20124 32,10.01389 22.78543,13.47171 33,36.37869 33,61.98535 h 15 c 0,-53.21722 -40.92938,-87.92523 -93,-89 m -242,20 -1,15 67,7 2,-14 -68,-8 m 120,8 2.74228,13.93286 L 317,464 l 49,-5 -1,-15 z"
       id="path1" />
  </g>
</svg>
