<?xml version="1.0" encoding="UTF-8" standalone="no"?>
<!-- Created with Inkscape (http://www.inkscape.org/) -->

<svg
   version="1.1"
   id="svg1"
   width="512"
   height="512"
   viewBox="0 0 512 512"
   sodipodi:docname="6408451.png"
   xmlns:inkscape="http://www.inkscape.org/namespaces/inkscape"
   xmlns:sodipodi="http://sodipodi.sourceforge.net/DTD/sodipodi-0.dtd"
   xmlns="http://www.w3.org/2000/svg"
   xmlns:svg="http://www.w3.org/2000/svg">
  <defs
     id="defs1" />
  <sodipodi:namedview
     id="namedview1"
     pagecolor="#ffffff"
     bordercolor="#000000"
     borderopacity="0.25"
     inkscape:showpageshadow="2"
     inkscape:pageopacity="0.0"
     inkscape:pagecheckerboard="0"
     inkscape:deskcolor="#d1d1d1">
    <inkscape:page
       x="0"
       y="0"
       width="512"
       height="512"
       id="page2"
       margin="0"
       bleed="0" />
  </sodipodi:namedview>
  <g
     inkscape:groupmode="layer"
     inkscape:label="Image"
     id="g1">
    <path
       style="fill:#040404;stroke:none"
       d="M 246,19 C 147.44797,19.815704 68.862869,117.13873 57,209 8.6539307,209.03186 -18.520107,267.92456 15.173611,303.96063 27.89463,317.56604 44.23724,321 62,321 c 1.597553,18.32123 11.629265,37.79401 19.75309,54 30.37935,60.60287 93.51742,114 164.24691,114 0,5.4512 -1.39832,13.19202 1.74228,17.95602 4.60258,6.98166 14.48907,5.85178 17.51544,-1.95987 C 267.06427,500.33307 266,493.93027 266,489 c 70.78467,0 133.83945,-53.34088 164.24692,-114 8.11673,-16.19189 18.15762,-35.70322 19.75308,-54 17.76279,0 34.10535,-3.43396 46.82639,-17.03937 C 530.51965,267.92505 503.32776,209.03186 455,209 450.3772,173.20401 435.39154,137.76187 415.33026,108 410.41797,100.7124 404.52225,90.411316 396.99615,85.603394 391.81842,82.295685 384.38135,84.133728 382.16281,90.015442 378.32458,100.19119 396.0242,115.99808 401.33258,124 418.52313,149.91324 429.10577,179.60571 435,210 402.9292,209.97885 371.00409,199.1561 345,180.57251 335.19516,173.56558 327.74951,163.86771 318,157 v -1 c 6.89935,-3.9881 17.14685,-12.21848 19.81171,-20 2.45495,-7.16861 -4.57206,-14.41016 -11.81171,-12.33258 -7.69403,2.20798 -13.99774,11.40247 -20,16.41284 C 293.41846,150.58267 279.9418,159.4364 266,168 V 39 c 12.77097,0.263641 25.91992,3.321381 38,7.333344 5.49893,1.826263 13.26315,6.166198 18.98148,3.344909 9.9436,-4.905975 5.02945,-15.894989 -2.98533,-19.224548 C 303.43793,23.574951 283.94632,19.148529 266,19 266,15.198761 266.6557,10.612335 265.25772,7.0038452 262.23138,-0.80780029 252.34485,-1.9376831 247.74228,5.0439758 245.1494,8.9771423 246,14.517517 246,19 m 222.00385,19.587189 c -10.16764,2.68399 -3.96738,12.004303 -8.03162,18.094909 -2.78516,4.173798 -9.88492,1.443726 -13.95371,3.060181 -7.56051,3.003662 -7.56051,14.511749 0,17.515442 3.97849,1.580597 10.14344,-0.888977 13.37809,2.345673 5.37664,5.376648 -1.44675,22.781216 13.59954,18.809417 10.16755,-2.68396 3.96735,-12.004303 8.03162,-18.094909 2.78516,-4.173767 9.88492,-1.443726 13.95371,-3.060181 7.56054,-3.003693 7.56054,-14.511749 0,-17.515442 -3.97858,-1.580627 -10.14341,0.889008 -13.37809,-2.345673 -5.37664,-5.376648 1.44672,-22.781219 -13.59954,-18.809417 M 246,39 v 99 c 0,10.4765 3.84692,30.14935 -0.60339,39.60956 -1.64104,3.4884 -7.14193,4.84222 -10.39661,6.23999 -9.16525,3.93613 -18.51657,7.38968 -28,10.48071 -28.62154,9.32892 -58.10869,13.71225 -88,15.75925 C 105.31236,211.02686 90.601822,212.52512 77,210 87.516083,128.56738 158.47824,39.724396 246,39 m 109.01544,14.743073 c -11.37622,4.424682 -4.70172,22.958129 6.96912,18.243804 11.30383,-4.566101 4.69238,-22.779449 -6.96912,-18.243804 M 266,470 v -52 c 16.80942,-1.32846 33.26978,-8.23767 45.99615,-19.30017 6.18708,-5.37811 11.02677,-17.67212 -0.99691,-20.2222 -6.08441,-1.29044 -11.55112,5.83859 -15.99924,8.95215 -8.4967,5.94748 -18.64993,9.74655 -29,10.57022 v -65 c 8.50281,-1.96802 18.05154,-5.96585 23.58026,-13.03937 4.48602,-5.73944 2.09619,-14.2218 -5.58411,-15.52234 C 277.48199,303.33521 272.28668,310.7836 266,312 v -84 c 0,-9.92007 -3.25082,-26.66669 0.60339,-35.81482 3.03037,-7.19269 19.90345,-13.29361 26.39661,-17.5293 2.46286,-1.60659 5.82498,-4.80407 8.98535,-4.54245 6.18253,0.51184 16.98752,15.26923 22.01465,19.45139 15.93069,13.25305 34.34561,23.79898 54,30.43133 17.35706,5.85712 35.71869,9.16388 54,9.96448 22.22141,0.97315 45.14529,-5.47119 56.68674,20.03937 9.20916,20.35544 -2.3386,45.71429 -24.68674,50.48224 -8.88873,1.89642 -23.38629,-4.3313 -29.14584,4.56174 -3.85291,5.94906 -4.53684,15.19192 -6.57407,21.95602 -3.90427,12.96326 -8.85382,26.00958 -15.16898,38 C 390.36139,408.19415 355.41998,443.93027 309,460.94675 294.85162,466.13324 280.38864,466.57434 266,470 M 246,201 v 110 c -5.79898,-1.72241 -10.86887,-8.73242 -17,-8.44214 -7.1507,0.33856 -11.4832,8.64972 -7.48225,14.44138 C 226.79523,324.63879 236.96213,330.44379 246,332 v 65 c -10.45502,-1.409 -20.67375,-6.27478 -29,-12.67902 -4.37576,-3.36566 -9.73218,-10.17849 -16,-8.84335 -12.12234,2.58225 -7.13893,14.38263 -0.98534,19.79321 C 212.50365,406.2518 229.1189,415.62119 246,417 v 53 c -14.38866,-3.42566 -28.85161,-3.86676 -43,-9.05325 C 156.90106,444.04794 122.24606,408.68921 99.30941,366 89.680954,348.07971 83.07695,327.8302 78.790123,308 77.084602,300.11053 76.364418,285.66992 68.956017,281.01001 54.779999,272.09329 55.037659,293.4184 57,301 18.990574,300.97485 4.8648376,246.65222 42,231.47531 c 9.35788,-3.82452 18.340038,-1.72665 28,-1.48996 19.059967,0.46704 37.93501,1.65918 57,-0.15512 27.86865,-2.6521 55.14946,-7.46329 82,-15.55014 12.4619,-3.75327 24.4127,-10.29031 37,-13.28009 m -69.99614,46.58795 c -12.58269,3.27939 -7.33321,22.2193 4.99228,18.97455 11.77141,-3.09888 6.83354,-22.05667 -4.99228,-18.97455 m 155.01079,0.0795 c -11.67011,3.44037 -7.10501,22.05383 4.98459,18.89508 12.53277,-3.27454 7.10446,-22.45895 -4.98459,-18.89508 M 201,272.62653 c -8.95728,1.43536 -14.01016,10.29477 -24,10.29477 -9.71371,0 -19.62767,-13.74692 -28.78627,-7.02778 -6.83144,5.01181 -3.47824,13.24689 1.80479,17.77778 8.64463,7.41391 21.82225,10.63256 32.98148,8.88967 9.56381,-1.49374 21.85605,-5.9306 27.25772,-14.56482 4.38358,-7.00689 -0.47035,-16.77774 -9.25772,-15.36962 m -16,72.90664 c -10.93672,2.35794 -20.71501,11.52805 -25.20062,21.46683 -3.56101,7.89014 0.22333,17.46912 10.19676,15.76776 6.6707,-1.13797 8.49013,-9.22977 13.09721,-13.30017 4.14148,-3.65906 10.91005,-5.17255 13.29477,-10.48611 3.4223,-7.62552 -3.6826,-15.10959 -11.38812,-13.44831 M 423,454 c -8.15384,0 -31.30722,5.12173 -17.72147,17.56635 4.55814,4.17529 12.06678,-0.0143 16.11808,4.03704 5.61596,5.616 -2.2974,18.32984 10.60339,19.07795 13.69931,0.7944 6.10165,-13.57621 11.60339,-19.07795 3.75931,-3.7593 10.8118,-0.13855 15.18286,-3.34567 5.59812,-4.10742 4.90116,-12.63861 -0.84103,-16.16821 C 453.30365,453.23642 447.20111,454 442,454 c 0,-4.58939 1.05008,-10.77676 -1.17902,-14.95602 -3.45269,-6.47339 -13.18924,-6.47342 -16.64196,0 C 421.94995,443.22321 423,449.41061 423,454 Z"
       id="path1" />
  </g>
</svg>
