<?xml version="1.0" encoding="UTF-8" standalone="no"?>
<!-- Created with Inkscape (http://www.inkscape.org/) -->

<svg
   version="1.1"
   id="svg1"
   width="512"
   height="512"
   viewBox="0 0 512 512"
   sodipodi:docname="7061054.png"
   xmlns:inkscape="http://www.inkscape.org/namespaces/inkscape"
   xmlns:sodipodi="http://sodipodi.sourceforge.net/DTD/sodipodi-0.dtd"
   xmlns="http://www.w3.org/2000/svg"
   xmlns:svg="http://www.w3.org/2000/svg">
  <defs
     id="defs1" />
  <sodipodi:namedview
     id="namedview1"
     pagecolor="#ffffff"
     bordercolor="#000000"
     borderopacity="0.25"
     inkscape:showpageshadow="2"
     inkscape:pageopacity="0.0"
     inkscape:pagecheckerboard="0"
     inkscape:deskcolor="#d1d1d1">
    <inkscape:page
       x="0"
       y="0"
       width="512"
       height="512"
       id="page2"
       margin="0"
       bleed="0" />
  </sodipodi:namedview>
  <g
     inkscape:groupmode="layer"
     inkscape:label="Image"
     id="g1">
    <path
       style="fill:#020202;stroke:none"
       d="m 40,120 c 0,11.96619 2.620831,27.46811 -0.637344,39 C 31.73757,185.98804 13.89592,208.6973 9.439043,237 6.5034466,255.64206 8,275.17511 8,294 v 98 56 c 0,11.45221 -1.0107946,23.42593 4.276235,34 C 25.558546,508.56464 56.226974,504 81,504 h 187 c 24.72394,0 57.55392,5.49722 71.17902,-21 C 344.98148,471.71576 344,459.27078 344,447 v -55 -98 c 0,-18.82306 1.50208,-38.36041 -1.43906,-57 C 338.09515,208.69754 320.2608,185.98251 312.63733,159 309.37918,147.46811 312,131.96622 312,120 335.07861,118.11249 336,98.352325 336,80 336,54.514557 340.25598,22.431915 311,10.926697 301.16995,7.0609436 290.33319,8 280,8 H 230 C 172.05885,8 113.92146,6.5917053 56,8.0146484 51.239376,8.1315918 46.486362,9.1095886 42,10.699066 12.732822,21.068237 16,51.89798 16,77 c 0,18.968781 -0.530537,40.99374 24,43 M 424,16 v 56 c -8.66504,0 -32.19769,-4.103058 -37.99075,3.394287 C 382.17227,80.360077 384,90.099274 384,96 v 53 203 c -6.0452,0 -16.66245,-2.03198 -21.34723,2.65277 C 359.69171,357.6138 360.00644,362.15094 360,366 c -0.0152,9.12225 -4.15182,32.54266 2.65277,39.34723 3.38522,3.38519 8.99222,2.6525 13.34723,2.65277 h 32 v 48 c -7.55438,0 -22.35278,-2.82227 -28.60571,2.00925 -3.12165,2.41205 -3.34125,6.36566 -3.39044,9.99075 -0.10926,8.0495 -3.77549,29.80286 4.2099,34.54321 C 386.96646,506.55182 400.35272,504 408,504 c 22.6597,0 45.34265,0.30356 68,-0.004 15.93213,-0.21618 12,-17.53839 12,-28.99615 0,-4.80438 1.13498,-11.53653 -2.00925,-15.60571 C 480.87006,452.76718 463.49182,456 456,456 v -48 h 32 c 4.35498,-2.7e-4 9.96201,0.73242 13.34723,-2.65277 6.80459,-6.80457 2.668,-30.22504 2.65277,-39.34723 -0.006,-3.84906 0.30832,-8.38617 -2.65277,-11.34723 C 496.66245,349.96802 486.0451,352 480,352 V 149 96 c 0,-5.900696 1.82773,-15.639923 -2.00925,-20.605713 C 472.19766,67.896942 448.66504,72 440,72 V 16 H 424 M 52,24.300934 C 68.659782,21.839264 87.156433,24 104,24 h 104 62 c 10.20776,0 22.02188,-1.625366 32,0.680542 24.06567,5.561493 18,37.047882 18,55.319458 0,6.628754 2.68759,20.10709 -5.04398,23.25772 C 309.64368,105.42255 301.65524,104 296,104 H 253 104 56 c -5.692833,0 -14.782444,1.69675 -19.891205,-1.17902 C 29.354809,99.019104 32,85.494568 32,79 32,60.435638 26.213257,28.111206 52,24.300934 M 464,88 v 264 h -64 v -40 h 40 v -16 h -40 v -16 h 24 v -16 h -24 v -16 h 40 v -16 h -40 v -16 h 24 v -16 h -24 v -16 h 40 v -16 h -40 v -16 h 24 V 136 H 400 V 88 h 64 m -168,32 v 32 H 56 v -32 h 240 m 32,128 H 24 c 3.900211,-20.99573 10.500923,-38.46109 19.13966,-58 2.466488,-5.57864 5.204056,-17.43912 10.358799,-20.97223 C 57.123978,166.54279 64.788673,168 69,168 h 40 139 36 c 3.99521,0 11.05252,-1.33624 14.50156,1.02777 5.15472,3.53311 7.8923,15.39359 10.35879,20.97223 8.63873,19.53888 15.23953,37.00427 19.13965,58 m 0,16 v 16 H 24 v -16 h 304 m 0,32 V 408 H 24 V 296 H 328 M 46.043209,312.65277 C 36.18787,315.93207 40,335.92593 40,344 v 33 c 0.0017,4.42154 -0.544445,9.94733 3.394291,12.99072 4.42725,3.4209 12.364975,2.03379 17.605709,2.00852 3.775146,-0.0182 7.411522,-0.26493 11,-1.54785 C 82.294022,386.77118 89.264687,375.96338 87.698303,365 c -0.629951,-4.40912 -4.068672,-8.6557 -4.068672,-13 0,-6.62457 5.105904,-11.74026 4.068672,-19 -2.64463,-18.51019 -25.404754,-25.75443 -41.655094,-20.34723 M 116,312.46759 C 93.98278,316.58594 96,338.83121 96,356 c 0,7.75061 -0.816765,15.86768 2.835648,23 4.609602,9.0015 15.157092,14.40427 25.164352,12.53241 22.01723,-4.11832 20,-26.36365 20,-43.53241 0,-7.75055 0.81676,-15.86771 -2.83565,-23 C 136.55475,315.9985 126.00726,310.5957 116,312.46759 M 152,312 v 16 h 16 v 64 h 16 v -64 h 16 v -16 h -48 m 76,0.46759 c -22.01721,4.11835 -20,26.36362 -20,43.53241 0,7.75061 -0.81676,15.86768 2.83565,23 4.6096,9.0015 15.15709,14.40427 25.16435,12.53241 22.01724,-4.11832 20,-26.36365 20,-43.53241 0,-7.75055 0.81674,-15.86771 -2.83565,-23 C 248.55475,315.99854 238.00726,310.5957 228,312.46759 M 256,312 l 16.60031,28 6.00156,12 -6.00156,12 L 256,392 c 4.41791,0 10.68802,1.13461 14.81482,-0.60339 C 277.47766,388.59052 284.60864,372.53168 287,366 h 2 c 2.39136,6.53168 9.52234,22.59052 16.18518,25.39661 C 309.31195,393.13461 315.58209,392 320,392 l -16.60031,-28 -6.00156,-12 6.00156,-12 L 320,312 c -4.41788,0 -10.68808,-1.13461 -14.81482,0.60339 C 298.52234,315.40948 291.39136,331.46832 289,338 h -2 c -2.39136,-6.53171 -9.52234,-22.59052 -16.18518,-25.39661 C 266.68802,310.86536 260.41794,312 256,312 M 56,344 v -16 c 3.732628,0 8.512321,-0.72296 11.891205,1.17902 5.140213,2.89346 5.140213,10.7485 0,13.64196 C 64.512314,344.72299 59.732624,344 56,344 m 62.01543,-15.55093 c 4.25031,-1.06302 8.37465,1.40103 9.55093,5.56637 2.59741,9.19776 1.39188,24.48606 0.32484,33.9838 -0.4022,3.58004 -2.22013,6.6297 -5.90663,7.55169 -4.2503,1.06302 -8.37465,-1.401 -9.55093,-5.56637 -2.5974,-9.19773 -1.39188,-24.48606 -0.32484,-33.9838 0.40219,-3.58004 2.22012,-6.6297 5.90663,-7.55169 m 112,0 c 4.2503,-1.06302 8.37466,1.40103 9.55093,5.56637 2.59741,9.19776 1.39188,24.48606 0.32484,33.9838 -0.4022,3.58004 -2.22013,6.6297 -5.90663,7.55169 -4.25033,1.06302 -8.37465,-1.401 -9.55093,-5.56637 -2.5974,-9.19776 -1.39188,-24.48609 -0.32484,-33.9838 0.4022,-3.58001 2.22012,-6.6297 5.90663,-7.55169 M 56,376 v -16 c 3.732624,0 8.512321,-0.72296 11.891205,1.17902 5.140205,2.89346 5.140213,10.7485 0,13.64196 C 64.512299,376.72299 59.732635,376 56,376 m 432,-8 v 24 H 376 v -24 h 112 m -48,40 v 48 h -16 v -48 h 16 m -112,16 v 16 H 24 v -16 h 304 m 0,32 c 0,5.66211 0.49835,11.60318 -1.56329,17 C 318.12558,494.75638 285.21335,488 267,488 H 83 C 65.079353,488 33.739571,494.40344 25.563271,473 23.501646,467.60321 24,461.66208 24,456 h 304 m 144,16 v 16 h -80 v -16 z"
       id="path1" />
  </g>
</svg>
