<?xml version="1.0" encoding="UTF-8" standalone="no"?>
<!-- Created with Inkscape (http://www.inkscape.org/) -->

<svg
   version="1.1"
   id="svg1"
   width="512"
   height="512"
   viewBox="0 0 512 512"
   sodipodi:docname="7061125.png"
   xmlns:inkscape="http://www.inkscape.org/namespaces/inkscape"
   xmlns:sodipodi="http://sodipodi.sourceforge.net/DTD/sodipodi-0.dtd"
   xmlns="http://www.w3.org/2000/svg"
   xmlns:svg="http://www.w3.org/2000/svg">
  <defs
     id="defs1" />
  <sodipodi:namedview
     id="namedview1"
     pagecolor="#ffffff"
     bordercolor="#000000"
     borderopacity="0.25"
     inkscape:showpageshadow="2"
     inkscape:pageopacity="0.0"
     inkscape:pagecheckerboard="0"
     inkscape:deskcolor="#d1d1d1">
    <inkscape:page
       x="0"
       y="0"
       width="512"
       height="512"
       id="page2"
       margin="0"
       bleed="0" />
  </sodipodi:namedview>
  <g
     inkscape:groupmode="layer"
     inkscape:label="Image"
     id="g1">
    <path
       style="fill:#050505;stroke:none"
       d="m 130,256 c 3.61958,26.87933 20.6848,42.68481 39,61 6.41437,6.41437 23.15691,17.0675 21.71991,27 -3.21703,22.23599 -23.26833,41.50443 -44.71991,46.33487 -16.31277,3.67331 -31.42915,1.58115 -46,11.7045 C 67.429367,424.66833 72,461.1174 72,496 h 16 c 0,-31.45969 -5.645752,-70.19312 30,-85.12347 10.02893,-4.20063 21.47258,-2.60862 32,-4.89118 6.82117,-1.479 18.68785,-10.33563 25,-9.25928 6.74712,1.15058 14.98347,11.49598 21,15.20911 C 208.91905,419.90826 224.86748,424 240,424 c 15.13251,0 31.08096,-4.09174 44,-12.06482 6.01651,-3.71313 14.2529,-14.05853 21,-15.20911 6.10675,-1.04135 17.4931,7.50733 24,9.03782 14.10202,3.31692 31.32791,-0.0148 42.88272,10.76544 5.81885,5.4288 -5.69125,11.25195 -2.8696,18.47067 4.07715,10.43073 17.04203,15.1658 21.95911,25 4.39792,8.79584 1.02777,26.22177 1.02777,36 h 16 c 0,-9.66577 -3.63245,-28.70627 1.60339,-37 5.9249,-9.38522 19.93171,-24.70065 27.76081,-9 3.29913,6.61615 -12.09195,13.92014 -12.92594,21 -1.13192,9.60913 17.01795,23.18066 23.56174,28.86652 14.17484,12.3164 35.72723,-19.59018 45,-28.86652 4.08267,-4.08423 11.24026,-9.44711 10.55093,-16 -0.38733,-3.68201 -3.13354,-6.46671 -5.56945,-9 C 492.10675,439.89035 480.4949,423.31979 471,424.43826 c -12.0293,1.41703 -15.07797,21.7966 -26.88272,7.56174 -4.16748,-5.02539 0.1618,-8.26373 3.88272,-12 6.25333,-6.27914 20.50317,-15.94852 13.48611,-26 -4.95101,-7.09204 -20.2507,-25.62192 -29.48611,-25.62192 -6.62411,0 -12.08679,11.93436 -18,8.98612 C 407.32532,374.03632 401.25,365.25 396,360 381.33139,345.33136 367.25226,328.16162 351,315.27856 341.45242,307.71024 326.80804,326.52185 322.20679,309 c -1.33512,-5.08417 9.41476,-12.4465 12.3287,-16 8.65753,-10.55771 13.64713,-23.50397 15.46451,-37 6.77335,0 13.67038,0.53381 20,-2.35263 18.06287,-8.237 32.88281,-37.24268 29.38425,-56.64737 -1.77426,-9.84079 -13.76685,-18.26575 -13.48072,-27.00076 0.73236,-22.3563 7.84302,-43.46799 4.8079,-65.99924 C 383.7623,52.412964 337.91785,8.2559204 285,8.0007629 221.1116,7.6927185 144.16603,-4.0479736 105.44984,60 94.637207,77.887299 87.120636,99.83255 88.039352,121 c 0.719101,16.56824 6.522858,33.44232 6.094132,49.99615 -0.126579,4.88736 -4.502106,7.39859 -7.206017,11.0185 C 83.376915,186.76801 81.357071,192.17017 80.439041,198 77.4347,217.07867 92.329926,245.58948 110,253.64737 116.32964,256.53381 123.22665,256 130,256 m 240,-87 h -1 c -1.91989,-6.49527 -0.30966,-13.37146 -1.66589,-20 -4.92978,-24.09418 -12.69345,-46.91644 -28.77317,-66 -49.27655,-58.481873 -149.30114,-58.084961 -197.94597,1 -15.61107,18.96152 -23.16291,41.23035 -27.94985,65 -1.33517,6.62982 0.25382,13.50803 -1.66512,20 -3.74267,-7.78796 -3.25264,-18.49811 -4.42361,-27 C 99.986237,94.151978 118.80969,47.185577 167,29.064819 192.56319,19.452423 224.16684,24 251,24 c 39.59827,0 75.0889,0.659241 102.53625,34 13.93879,16.931671 22.98255,39.880859 22.4491,62 -0.39505,16.38074 -4.69739,32.68057 -5.98535,49 M 347,133 C 330.65485,126.80478 317.23053,113.03674 301,105.86188 268.28635,91.400482 220.64256,90.959717 187,102.69522 167.11589,109.63138 152.18454,125.72861 133,133 c 1.94702,-13.18384 9.59891,-26.60593 17.66513,-37 41.66022,-53.682983 134.17773,-54.820618 177.07407,-2 8.75665,10.78256 17.20138,25.05554 19.2608,39 M 216,112.28549 c 39.99521,-4.78326 74.74902,2.88053 108,25.04785 7.04614,4.69742 24.06342,11.90705 27.39661,19.85108 3.40872,8.12402 1.03793,24.51773 -1.02317,32.81558 l -14.5,58 c -2.72784,10.91135 -4.35864,22.85785 -11.40277,32 -3.31241,4.29898 -10.04687,13.22913 -15.47067,14.65588 -5.9389,1.56223 -7.27075,-3.64215 -12.96143,2.3534 -5.07086,5.34247 0.6717,7.86059 -1.7901,12.99072 C 287.3129,324.45306 266.98074,333.76392 252,335.71063 217.71873,340.16553 198.9104,323.9104 176,301 c -8.61041,-8.61041 -19.26361,-16.91669 -24.72685,-28 -8.29616,-16.83047 -10.6005,-38.81555 -15.14661,-57 -4.0359,-16.14362 -14.45856,-42.28632 -7.52315,-58.81558 C 131.26888,150.83176 143.43681,145.7088 149,142 c 21.45493,-14.30328 40.86548,-26.58893 67,-29.71451 M 10,156 c 11.620535,7.67899 12.809456,7.62067 22,-3 0,38.67023 3.123703,75.58734 20.258488,111 C 60.193745,280.39987 71.048424,293.95309 81,309 l 13,-10 v -1 C 56.953217,257.65817 48,205.56274 48,153 c 8.928207,10.31754 10.670784,11.13809 22,3 -3.895317,-10.12671 -13.244133,-19.57001 -20.00386,-27.99924 -2.727551,-3.40118 -6.064614,-8.01516 -10.992283,-7.66357 -4.377205,0.31232 -6.989796,4.50378 -9.377314,7.66357 C 23.096266,136.64337 13.902807,145.85385 10,156 m 400,0 c 11.62054,7.67902 12.80948,7.62064 22,-3 0,52.53156 -8.97284,104.67969 -46,145 v 1 l 13,10 c 9.9353,-15.035 20.81992,-28.62823 28.74152,-45 C 444.86279,228.61511 448,191.64349 448,153 c 8.92819,10.31754 10.67078,11.13809 22,3 -3.90277,-10.14612 -13.09631,-19.35669 -19.62656,-27.99924 -2.38754,-3.15982 -5.00006,-7.35125 -9.37729,-7.66357 -4.92761,-0.35159 -8.26477,4.26239 -10.9923,7.66357 C 423.24411,136.43002 413.89532,145.87323 410,156 m -262,37 16,-4 -4,-15 c -14.3401,2.96771 -14.80959,5.38782 -12,19 m 172,-19 -4,15 16,4 c 2.72495,-13.20206 2.60208,-16.85156 -12,-19 m -208,10 14,56 c -25.12001,-0.0166 -43.607178,-45.89886 -14,-56 m 242,56 14,-56 c 29.60715,10.10114 11.12003,55.98343 -14,56 M 153,209 c 0.54109,3.67761 1.24524,10.60611 3.9375,13.35727 2.6248,2.68222 13.16806,-0.099 14.27469,-3.6358 C 172.3597,215.05399 169.30202,208.45126 168,205 l -15,4 m 170,15 c 1.28979,-3.41882 4.37555,-10.06894 3.21222,-13.69678 -1.05084,-3.27707 -10.85288,-5.94754 -13.64819,-4.18518 -1.83793,1.15875 -2.18824,3.97397 -2.71448,5.88272 C 307.04822,222.16147 314.56964,222.25995 323,224 m -162,16 4,15 16,-4 -4,-15 -16,4 m 142,-4 -4,15 16,4 4,-15 -16,-4 m -119,27.34567 c -11.98878,2.98892 -8.66533,21.96762 2,19.30866 11.9888,-2.98892 8.6653,-21.96762 -2,-19.30866 m 110,0 c -11.9888,2.98892 -8.66534,21.96762 2,19.30866 11.98883,-2.98892 8.66528,-21.96762 -2,-19.30866 M 207,307 h 1 l 11,-11 c -2.28017,-3.23697 -5.91025,-8.6347 -10,-9.65433 -4.08104,-1.01742 -11.67125,6.57352 -10.65433,10.65433 0.9514,3.81787 5.98027,7.32565 8.65433,10 m 54,-12 c 1.52957,2.17139 3.10764,4.11771 5.01852,5.98535 1.4325,1.40009 3.03058,3.16669 4.98148,3.83872 14.15729,4.87686 11.54361,-24.0369 -1,-18.07254 -3.44882,1.63989 -6.33679,5.58554 -9,8.24847 m 96,98 c -25.56223,-3.23056 -47.2453,-6.35846 -61.53549,-31 -7.83887,-13.51706 -8.61331,-22.38309 2.53549,-33.03937 2.59222,-2.47769 6.80539,-8.66064 11,-7.61496 3.33627,0.8317 9.78601,7.03787 9.79321,10.65433 0.0108,5.40887 -7.65683,7.71906 -5.80554,14 1.72623,5.85669 8.85001,10.83771 13.01233,15 10.2356,10.2356 22.66095,20.16174 31,32 m -13,-59.79321 c 5.12466,0 11.66162,9.45483 15,12.79321 l 30,30 c 4.08121,4.08121 10.74377,8.73535 13.24847,14 2.07416,4.35974 -5.88617,12.79321 -10.24847,12.79321 -5.12469,0 -11.66165,-9.45483 -15,-12.79321 l -30,-30 c -4.08124,-4.08124 -10.74377,-8.73532 -13.24847,-14 -2.07416,-4.35971 5.88613,-12.79321 10.24847,-12.79321 M 274,347 c 1.30057,9.65039 5.57211,18.996 11.02856,27 2.19883,3.2254 7.29651,7.75693 5.22376,12 -2.74866,5.62668 -10.0849,9.71576 -15.25232,12.79321 -19.15079,11.40528 -43.8454,12.22333 -64,3.02857 -6.45587,-2.94525 -19.69029,-9.30139 -21.65819,-16.82178 -1.03714,-3.9635 4.48364,-8.9021 6.42902,-12 4.87575,-7.76443 9.42183,-16.75281 10.22917,-26 0,0 22.06803,6.54802 33.39312,6.30483 C 258.51168,352.8943 274,347 274,347 m 158,42.20679 c 4.3623,0 12.32266,8.43347 10.24847,12.79321 -5.52322,11.60937 -22.15451,22.90662 -31.24847,32 -2.61685,2.6167 -6.89914,8.79321 -11,8.79321 -4.36227,0 -12.32263,-8.4335 -10.24847,-12.79321 5.52322,-11.60938 22.15451,-22.90662 31.24847,-32 2.61685,-2.61667 6.89911,-8.79321 11,-8.79321 M 120,496 h 16 c 0,-9.7283 0.0911,-18.94983 4.1821,-28 1.76071,-3.89508 8.59334,-10.72906 7.47609,-15 -3.70366,-14.15817 -13.91912,-6.53339 -18.59261,1 C 120.9413,467.09583 120,481.02808 120,496 m 224,0 h 16 c 0,-14.97192 -0.94128,-28.90417 -9.06558,-42 -4.67346,-7.53336 -14.88898,-15.1582 -18.59259,-1 -1.12616,4.30505 6.043,12.00119 7.86575,16 3.92624,8.61356 3.79242,17.75037 3.79242,27 m 128,-50.79321 c 3.88727,0 11.65436,7.78177 10.65433,11.79321 -1.78562,7.16278 -14.46402,15.91318 -19.65433,20.99536 -1.81454,1.77677 -4.18982,4.79785 -7,4.79785 -3.88727,0 -11.65433,-7.78177 -10.65433,-11.79321 1.78562,-7.16281 14.46399,-15.91315 19.65433,-20.99536 1.81448,-1.7767 4.18988,-4.79785 7,-4.79785 z"
       id="path1"
       sodipodi:nodetypes="cssssccsssssssssssccssssssssssssssssscssssssssssscccsssscsssssccssccsccsscssssscssssscccscccccsssccccccsccsssccccccccccccccccsscccsssccccccccccccsccsccccssccsssccssssssccsssscssccsssssscsccssssscccssscccssscsssssss" />
  </g>
</svg>
