<?xml version="1.0" encoding="UTF-8" standalone="no"?>
<!-- Created with Inkscape (http://www.inkscape.org/) -->

<svg
   version="1.1"
   id="svg1"
   width="512"
   height="512"
   viewBox="0 0 512 512"
   sodipodi:docname="7294711.png"
   xmlns:inkscape="http://www.inkscape.org/namespaces/inkscape"
   xmlns:sodipodi="http://sodipodi.sourceforge.net/DTD/sodipodi-0.dtd"
   xmlns="http://www.w3.org/2000/svg"
   xmlns:svg="http://www.w3.org/2000/svg">
  <defs
     id="defs1" />
  <sodipodi:namedview
     id="namedview1"
     pagecolor="#ffffff"
     bordercolor="#000000"
     borderopacity="0.25"
     inkscape:showpageshadow="2"
     inkscape:pageopacity="0.0"
     inkscape:pagecheckerboard="0"
     inkscape:deskcolor="#d1d1d1">
    <inkscape:page
       x="0"
       y="0"
       width="512"
       height="512"
       id="page2"
       margin="0"
       bleed="0" />
  </sodipodi:namedview>
  <g
     inkscape:groupmode="layer"
     inkscape:label="Image"
     id="g1">
    <path
       style="fill:#050505;stroke:none"
       d="M 253.04398,0.75695801 C 241.4183,5.1654358 254.46811,25.14389 244.85185,29.3974 236.77078,32.971832 223.8482,33.243996 215.23977,34.571212 193.66497,37.897533 175.06311,43.41803 156,53.258484 142.92859,60.006012 131.01965,68.58374 120,78.285492 63.434635,128.08588 69,200.80331 69,269 v 104 c 0,16.50882 -3.081779,36.46393 3.464508,52 9.631126,22.85724 34.095172,25.08136 55.535492,27.07483 6.69411,0.62241 15.401,2.9841 21.99614,1.52704 7.62717,-1.68509 9.757,-12.64289 1.95988,-15.86035 -17.10768,-7.05945 -38.65989,1.1098 -54.95216,-9.84644 C 84.990898,419.81656 86,406.78284 86,394 V 313 227 C 86,200.81305 85.567451,175.23462 93.745369,150 118.73912,72.876648 206.90277,38.941132 282,48.284729 c 18.18137,2.262115 36.16068,7.092407 53,14.293976 13.58868,5.811371 26.52469,13.348785 38,22.682098 C 439.6246,139.44904 426,226.55505 426,303 v 75 c 0,11.49072 2.33823,25.98016 -1.22455,37 -6.43954,19.91785 -33.45627,20.35889 -50.77545,20.9892 -7.31296,0.26614 -20.42725,0.25171 -18.75616,10.99536 0.8966,5.76449 6.7405,7.24985 11.75616,6.72607 12.9809,-1.3555 26.08572,-2.05383 39,-4.14889 C 421.84622,446.991 436.0979,436.74646 440.95987,421 444.65637,409.02814 443,395.38446 443,383 V 316 C 443,232.94867 458.7739,133.76318 387,74.081024 374.5058,63.691711 360.78442,55.078125 346,48.308655 320.80768,36.773651 295.65698,34.879242 269.01929,29.866516 257.96777,27.786835 271.0965,-6.088623 253.04398,0.75695801 M 252.05864,95.027771 C 246.36461,98.133484 248,106.60983 248,112 c 0,16.82596 -2.82666,36.46512 0.22839,52.99615 0.98529,5.33143 6.667,8.60657 11.66281,5.82407 C 265.51666,167.68701 264,159.36887 264,154 c 0,-16.46368 3.75031,-38.07321 -0.3179,-53.99536 -1.27066,-4.973085 -7.06333,-7.464113 -11.62346,-4.976869 M 305,182 c -17.0416,0.0112 -16.80774,16.64194 0,17 0.14041,16.7421 16.95197,16.74725 17,0 17.01459,-0.14267 17.33221,-16.98859 0,-17 -0.0115,-17.40021 -16.95013,-17.39032 -17,0 M 195,451 c -5.37102,14.02759 -10.39946,25.7851 -22.01466,35.99924 -4.99411,4.39169 -17.21117,9.05612 -16.64815,17 1.09003,15.37954 20.22491,2.95215 25.66281,-1.46683 14.33588,-11.64975 35.5238,-38.95401 29.56636,-59.4892 C 209.77449,436.86667 199.15141,434.13464 194,431.30554 181.0307,424.18295 170.14597,414.81439 160.08951,404 133.7457,375.67065 125.36765,338.14642 121.83025,301 c -1.30349,-13.68793 -3.44537,-31.64246 0.47376,-45 3.0948,-10.548 13.88071,-16.63193 22.69599,-21.99692 23.88547,-14.53674 47.70023,-19.53738 74,-8.28317 13.81189,5.91037 29,10.70666 29,27.28009 -13.84625,-3.89252 -24.17447,-1.0192 -38,0.70987 -3.6337,0.45444 -7.45779,-0.83142 -10.99614,-0.0478 -6.73436,1.49133 -8.95619,9.99899 -3.60957,14.45913 12.65761,10.5589 31.74156,-5.72277 45.60495,1.25693 9.29034,4.67734 4.04384,30.23764 17.98147,24.87577 C 265.50409,291.74432 264,283.57941 264,278 v -41 c 0,-4.78751 1.50165,-12.74969 -1.60339,-16.77161 -5.21534,-6.75528 -12.18386,0.88626 -18.39661,-1.54937 -23.31149,-9.13901 -41.76407,-20.20209 -68,-15.59491 -22.87207,4.01648 -55.63823,18.72781 -67.09877,39.91589 -8.82732,16.31982 -5.20696,40.23962 -3.99074,58 4.15431,60.66492 29.88068,124.93292 90.08951,150 m 107,7 c 1.56641,17.82867 16.15744,35.86194 30,46.07562 5.70776,4.21146 22.48059,14.17755 23.66666,-0.0756 C 356.35156,495.76956 344.0184,491.55862 339,486.90973 327.43387,476.19519 322.48315,465.32037 317,451 c 50.32828,-20.95349 78.93555,-72.41269 87.58643,-124 2.67355,-15.94312 5.73626,-35.17105 1.48996,-51 -1.25068,-4.66217 -3.44394,-9.21945 -6.45603,-13 C 379.59985,237.87173 352.47009,252.83936 326,249.71451 c -9.01965,-1.06479 -29.88315,-9.29032 -37.77545,-4.53549 -5.02332,3.02636 -4.19727,9.97183 -0.0911,13.30786 5.22666,4.2463 15.36515,5.39813 21.86652,6.37884 14.53964,2.1933 28.40195,2.11658 43,1.04553 8.86679,-0.65051 16.59732,-3.39514 24.99924,1.13505 14.13507,7.62142 12.65445,21.42196 12.04013,34.9537 -1.27484,28.0816 -8.63297,56.8045 -23.24307,81 -16.87916,27.95319 -43.07206,50.4808 -74.7963,59.57254 -11.72852,3.36124 -24.77319,5.69269 -37,5.41281 -5.59528,-0.12811 -13.05458,-2.87988 -17.29321,2.29321 -8.44339,10.30478 7.21847,11.19806 9.68982,16.86957 4.11454,9.44251 0.004,25.59189 0.64737,35.85187 0.35859,5.72006 4.85917,10.38708 10.91204,8.09183 5.21967,-1.97931 5.03617,-7.40876 5.04398,-12.09183 0.0147,-8.78488 -2.9205,-23.78085 0.60339,-31.85187 1.57654,-3.61081 6.12323,-3.12094 9.39661,-3.5733 9.4614,-1.30747 18.57947,-4.30628 28,-5.57483 m 41,-157 c -17.01373,0.0131 -16.78958,16.64236 0,17 0.1485,16.60931 16.98706,16.7439 17,0 17.13574,-0.14377 17.35468,-16.98853 0,-17 -0.0115,-17.3981 -16.95044,-17.2785 -17,0 m -116.99614,36.72223 c -6.341,0.67279 -8.15491,7.61114 -10.8804,12.27777 -3.42276,5.86047 -8.61069,11.26508 -14.12346,15.21143 -4.15227,2.97241 -11.22882,4.24908 -13.82098,8.8966 -3.30733,5.92972 1.14953,12.87323 7.82098,12.57715 14.95451,-0.66363 29.89603,-17.59103 36.21527,-29.68518 3.1583,-6.04453 6.89452,-20.56226 -5.21141,-19.27777 m 27.01543,3.02392 C 246.26796,343.34357 248,352.25409 248,358 c 0,17.0304 -2.48479,36.18842 0.14815,52.99924 0.80198,5.12054 5.83162,8.28787 10.83256,6.3966 C 265.73132,414.8429 264,405.69745 264,400 c 0,-17.00491 1.78894,-35.10773 -0.1088,-51.99924 -0.60748,-5.40713 -5.37097,-9.371 -10.87191,-7.25461 M 302,377 c -17.17294,0.0113 -16.77469,16.26865 0,17 0.13794,16.44769 16.95248,16.56329 17,0 16.99997,-0.35278 17.32394,-16.98853 0,-17 -0.0115,-17.41315 -16.95203,-17.42126 -17,0 z"
       id="path1"
       sodipodi:nodetypes="csssssssssssscsssscsssssssssssssccssssscccccccsssssssssscscssssssssssccssscsssssssssssssssssssscccccccsssssccssssscccccc" />
  </g>
</svg>
