<?xml version="1.0" encoding="UTF-8" standalone="no"?>
<!-- Created with Inkscape (http://www.inkscape.org/) -->

<svg
   version="1.1"
   id="svg1"
   width="512"
   height="512"
   viewBox="0 0 512 512"
   sodipodi:docname="7429624.png"
   xmlns:inkscape="http://www.inkscape.org/namespaces/inkscape"
   xmlns:sodipodi="http://sodipodi.sourceforge.net/DTD/sodipodi-0.dtd"
   xmlns="http://www.w3.org/2000/svg"
   xmlns:svg="http://www.w3.org/2000/svg">
  <defs
     id="defs1" />
  <sodipodi:namedview
     id="namedview1"
     pagecolor="#ffffff"
     bordercolor="#000000"
     borderopacity="0.25"
     inkscape:showpageshadow="2"
     inkscape:pageopacity="0.0"
     inkscape:pagecheckerboard="0"
     inkscape:deskcolor="#d1d1d1">
    <inkscape:page
       x="0"
       y="0"
       width="512"
       height="512"
       id="page2"
       margin="0"
       bleed="0" />
  </sodipodi:namedview>
  <g
     inkscape:groupmode="layer"
     inkscape:label="Image"
     id="g1">
    <path
       style="fill:#040404;stroke:none"
       d="m 223,271 c -5.41333,5.41333 -16.90721,13.09283 -14.13116,22 4.42793,14.20734 25.78587,28.65472 36.13116,39 l 64,64 c 10.87082,10.87082 21.42874,24.14459 34,33 v 1 c -8.36993,5.90048 -15.59988,25.72937 2,22.76776 9.10568,-1.53226 20.9122,-16.54504 26,-23.76776 h 1 c 7.00854,9.94943 18.05057,20.99146 28,28 v 1 c -4.34149,3.06027 -9.53659,7.24426 -9.84799,13 -0.48001,8.87283 8.94577,13.07431 15.84799,8.34723 17.71005,-12.12897 32.81879,-32.16602 48,-47.34723 5.89114,-5.89114 16.04221,-12.9129 18.81171,-21 2.14431,-6.26154 -3.12104,-13.37924 -9.81171,-12.74228 -5.66208,0.53903 -9.94421,5.41669 -13,9.74228 h -1 c -7.00851,-9.9494 -18.0506,-20.99149 -28,-28 v -1 c 7.98474,-5.62457 28.92737,-21.48016 22.54321,-32.89197 C 435.75882,332.19324 425.37143,352.78198 418,347.7037 405.11978,338.83035 394.06805,324.06805 383,313 c -15.3147,-15.3147 -34.53302,-30.30164 -47,-48 14.90472,-1.18616 30.22546,-7.27423 44,-12.80017 C 420.12109,236.1044 455.30237,210.21179 482.91898,177 c 9.27945,-11.15948 17.69162,-23.33472 24.79708,-36 2.95102,-5.2601 6.16565,-11.31479 1.77005,-16.81482 C 499.95392,112.2579 476.29736,104.55783 463,97.139648 436.36057,82.27832 409.73752,67.378448 383,52.694427 364.42041,42.490662 346.86856,30.961792 325,30.039368 298.07614,28.903717 278.46414,50.162048 252,48.960632 228.82001,47.908325 211.55322,29.003693 187,30.039368 165.138,30.961517 147.58871,42.485657 129,52.694427 99.90876,68.671112 70.984825,84.96991 42,101.13965 31.685236,106.89392 21.345222,112.60638 11,118.30557 6.2219133,120.93784 0.60855073,123.85434 0.28317899,130 c -0.31375105,5.92615 4.58520581,12.18741 7.52777801,17 8.51462,13.92569 18.154539,26.82828 29.023149,39 C 83.026382,237.73056 153.23338,270.8075 223,271 M 463,120 v 1 l -155,0.0895 -52,12.33951 -52,-12.3395 L 49,121 c 9.99157,-10.12927 27.530045,-16.45718 40,-23.305573 18.71255,-10.276763 37.41296,-20.617034 56,-31.118804 14.22786,-8.038819 28.11546,-16.745514 45,-16.571778 22.15451,0.227967 38.88168,17.383332 61,18.906647 27.79852,1.91449 47.89581,-20.066773 75,-18.871124 18.73059,0.826263 36.1936,13.606567 52,22.536255 C 406.20502,88.509796 435.36914,103.08908 463,120 m 21,20 c -4.17831,13.11215 -16.81671,24.98492 -25.83099,35 C 430.7673,205.44394 393.34525,228.91577 354,240.42438 c -10.00739,2.92718 -23.42838,8.56881 -34,7.38812 -15.39722,-1.71964 -22.16296,-30.74612 -38,-30.74612 -8.39957,0 -17.57291,13.51803 -23,18.93362 -2.22675,2.22202 -5.49734,6.79321 -9,6.79321 -5.12466,0 -11.66164,-9.45486 -15,-12.79321 l -38,-38 c -5.89909,-5.89908 -17.18689,-19.00406 -23.82022,-5.98456 -4.02071,7.89157 6.02833,15.19238 10.82022,19.98456 14.36238,14.36328 32.30652,28.39975 44,45 C 169.1925,251 113.06352,228.94577 69,190.15509 54.665752,177.53613 33.970894,158.73782 28,140 L 196,140.0895 259,153 316,140.08951 484,140 M 344,303 289,318.85956 267,324.22299 256,315 232,291 268,254 282,242.20679 299,257 l 45,46 m 63,62 v 1 l -34,34 c -3.83173,3.83173 -9.58011,12.30319 -15,13.65433 C 352.13321,415.11688 341.76385,400.76385 338,397 320.14682,379.14682 297.52985,361.62686 283,341 l 55,-16 22,-5.30322 15,13.30322 32,32 m 0,30.20679 c 6.62515,0 17.56613,15.26977 21.99536,19.79321 1.77673,1.81451 4.79785,4.18988 4.79785,7 0,4.37308 -6.98953,9.1976 -9.79321,12 -2.42477,2.42368 -6.18832,7.79321 -10,7.79321 -6.62509,0 -17.56616,-15.26977 -21.99536,-19.79321 -1.77673,-1.81454 -4.79785,-4.18982 -4.79785,-7 0,-4.37308 6.98953,-9.1976 9.79321,-12 2.42474,-2.42365 6.18832,-7.79321 10,-7.79321 z"
       id="path1" />
  </g>
</svg>
