<?xml version="1.0" encoding="UTF-8" standalone="no"?>
<!-- Created with Inkscape (http://www.inkscape.org/) -->

<svg
   version="1.1"
   id="svg1"
   width="512"
   height="512"
   viewBox="0 0 512 512"
   sodipodi:docname="botox.png"
   inkscape:export-filename="botox.svg"
   inkscape:export-xdpi="96"
   inkscape:export-ydpi="96"
   xmlns:inkscape="http://www.inkscape.org/namespaces/inkscape"
   xmlns:sodipodi="http://sodipodi.sourceforge.net/DTD/sodipodi-0.dtd"
   xmlns="http://www.w3.org/2000/svg"
   xmlns:svg="http://www.w3.org/2000/svg">
  <defs
     id="defs1" />
  <sodipodi:namedview
     id="namedview1"
     pagecolor="#ffffff"
     bordercolor="#000000"
     borderopacity="0.25"
     inkscape:showpageshadow="2"
     inkscape:pageopacity="0.0"
     inkscape:pagecheckerboard="0"
     inkscape:deskcolor="#d1d1d1">
    <inkscape:page
       x="0"
       y="0"
       width="512"
       height="512"
       id="page2"
       margin="0"
       bleed="0" />
  </sodipodi:namedview>
  <g
     inkscape:groupmode="layer"
     inkscape:label="Image"
     id="g1">
    <path
       style="fill:#050505;stroke:none"
       d="m 161,286 c -28.89194,13.7475 -27.14764,55.634 -4,73.47067 5.14482,3.96439 11.60042,6.91098 18,8.06482 3.67503,0.6626 9.38351,-0.69049 12.29784,2.0679 3.75511,3.5542 5.11695,11.69391 7.12962,16.39661 4.11353,9.61139 9.79216,19.04474 16.57254,27 h -17 v -14 c -7.7998,0 -19.66219,2.24472 -26.95679,-0.60339 C 161.72073,396.31848 159.29077,389.45325 154,386.67361 145.28151,382.09314 133.52983,384 124,384 v 15 c 6.27222,0 17.58014,-2.17133 22.8912,1.60339 7.1314,5.06848 7.13138,36.72473 0,41.79322 C 143.19249,445.02539 137.28722,444 133,444 h -31 v -45 c 8.04538,-0.62686 6,-8.76416 6,-15 H 75 L 62.603397,382.25772 61,369 H 46 v 29 c -5.979462,0 -25.360947,3.0939 -28.972223,-2.3179 C 14.420685,391.77515 16,383.53677 16,379 H 2 v 81 h 14 c 0,-4.31705 -1.458948,-11.95554 1.027777,-15.6821 C 20.639055,438.9061 40.020538,442 46,442 v 31 h 15 v -15 c 27.893326,0 58.39452,4.77814 86,0.69907 10.56946,-1.56177 11.47659,-10.11594 19.21297,-14.6713 C 172.58183,440.27765 186.70528,443 194,443 v -15 l 29,0.60339 11,9.10724 15.97221,13.38272 L 251,469 v 43 h 14 v -52 c 13.69083,3.94406 25.85455,11.45676 40,14.57562 29.16238,6.42987 53.54236,-3.56036 80,-14.57562 v 52 h 15 v -43 c 0,-5.16125 -1.50504,-13.24817 1.02777,-17.90665 2.81027,-5.16879 10.48737,-9.01046 14.97223,-12.70831 7.96375,-6.56631 15.32367,-14.3027 21.73456,-22.38504 4.71893,-5.94922 3.073,-11.34845 -4.71991,-13.71295 -3.60401,-1.09354 -5.88284,2.31479 -7.93439,4.71759 C 419.75641,413.24002 414.17471,419.29736 408,424.71375 388.83008,441.52933 362.17618,458.862 336,461 v -1 c 2.4603,-2.84787 -2.36136,-11.40463 -6.10495,-12.00308 C 326.16125,447.40002 321.33191,451.56427 318,453 l 4,9 c -26.49902,-1.13776 -55.77762,-16.34769 -75,-34 h 10 v -15 c -7.20938,0 -19.48372,2.35922 -25.96065,-1.02777 C 220.6134,406.52014 212.02081,388.37918 207.5787,378 197.25928,353.88818 198,329.68979 198,304 c 0,-15.86621 -0.91158,-31.62054 3.72145,-47 3.37238,-11.1947 9.19423,-21.08551 16.71759,-30 2.79321,-3.30969 11.17548,-8.42505 11.22994,-13.01465 C 229.71356,210.22794 225.0768,205.89117 223,203 c -32.80334,15.02576 -40,60.5618 -40,92 h -1 C 171.53186,266.23416 158.90051,242.96594 161.08951,211 166.68195,129.3335 244.94952,66.22052 325,66 V 51 L 293,54.424377 247,69 C 252.07298,56.815186 259.30121,46.081573 269,37.090271 331.66788,-21.006165 436.52463,49.1427 403.98532,129 398.75452,141.83734 391.15155,152.50299 381,161.90973 339.12405,200.71338 282.1192,167.76489 237,194 l 6,13 c 12.2534,-3.50287 23.04947,-8.02362 36,-8.91049 24.56421,-1.68219 49.9628,3.26422 74,-3.51776 18.48465,-5.21537 33.69305,-23.9906 53,-17.8256 53.68643,17.14292 47,73.41227 47,118.25385 0,19.86591 1.49014,40.4209 -2.44907,60 -2.35852,11.72253 -8.30627,21.73691 -11.55093,33 l 13,7 c 2.73407,-6.56702 6.29913,-20.77676 11.51001,-25.39661 2.83774,-2.51587 7.98047,-1.52813 11.48999,-2.27237 6.49646,-1.37765 12.72839,-3.94357 18,-8.01156 21.43445,-16.54062 25.38696,-59.65909 -3,-72.31946 4.7775,-14.03519 10.18643,-27.21741 12.56174,-42 6.96704,-43.35895 -4.16068,-88.63156 -31.56559,-123 C 462.92682,111.88025 453.20349,102.37811 443,94.424377 437.09677,89.822754 428.29501,85.595306 423.72763,79.674377 420.90332,76.013062 420.5051,70.29007 418.94598,66 415.86307,57.516998 411.77783,49.430023 406.65201,42 385.14078,10.818878 346.93619,-3.9536743 310,1.2854919 279.32291,5.6368408 252.96384,25.166962 238.03935,52 233.47507,60.206238 232.72725,72.447784 227.26158,79.674377 223.22365,85.013245 215.23631,88.435486 210,92.601074 198.84839,101.47244 188.76503,110.89731 179.80478,122 145.04591,165.06992 132.59924,236.09485 161,286 m 306,9 c 0,-45.90518 7.06116,-97.07385 -39,-124.54706 C 420.62619,166.05481 412.35248,162.93231 404,161 L 418.65509,132 425,100 c 9.2594,4.61237 16.76846,12.76569 24,20 32.57178,32.58429 45.25253,76.87744 39,122 -2.26147,16.32047 -7.97183,41.83948 -21,53 m -245,-8 v 1 c 4.69049,5.49896 8.39378,11.70999 15,15.17517 13.87619,7.2785 37.61807,2.82483 53,2.82483 v -14 c -19.94159,0 -42.42685,5.40863 -55,-13 l -13,8 m 138,5 v 14 c 15.16687,0 38.11893,4.26984 52,-2.32794 9.09396,-4.32242 21.57224,-18.30518 6.01465,-23.24613 C 412.53687,278.68622 407.46143,289.48303 402,291.19598 389.84418,295.00867 372.70657,292 360,292 m -192,7 14.48688,23 L 185,353 c -29.31015,4.94 -42.64426,-40.65994 -17,-54 m 298,54 1.51312,-30 L 482,300 c 13.05002,4.53046 16.11209,23.56995 11.52161,35 C 488.823,346.69922 478.17856,352.9664 466,353 m -254,-1 -5,14 14,5 5,-14 -14,-5 m 28,12 -6,13 c 10.59572,6.18439 16.01759,5.58478 20,-7 l -14,-6 m 113,12 c -8.32141,1.05719 -16.57788,2.95862 -25,2.99924 -5.75586,0.0277 -11.28903,-0.16037 -17,-0.84415 -3.3479,-0.40082 -10.45709,-2.93033 -13.43597,-1.03778 -3.16336,2.0097 -4.83265,11.26038 -1.24537,13.3688 11.14847,6.55253 31.49958,3.32184 43.68134,2.4892 3.56564,-0.24371 12.69962,-0.23389 14.88272,-3.56406 C 356.96054,386.24173 353.92535,379.29156 353,376 m -86,3 -8,13 12,8 c 7.64453,-10.31418 8.6799,-14.68524 -4,-21 M 87,444 61,443 V 398 L 85.396606,399.02777 87,411 v 33 m 204,-43.65433 c -10.80569,2.69501 -7.73721,19.73715 2,17.30866 10.80563,-2.69498 7.73724,-19.73715 -2,-17.30866 M 45,412 v 16 c -6.2621,0 -22.414171,2.9184 -27.396606,-1.02777 -2.843135,-2.2518 -2.700177,-12.6886 0.714508,-14.36884 C 24.753529,409.43665 37.852306,412 45,412 m 134,1 v 16 l -14,-1 c 0,-12.85651 0.853,-15 14,-15 m 123,16 c 4.93011,12.81696 10.11804,10.62924 20,5 l -8,-13 z"
       id="path1" />
  </g>
</svg>
