<?xml version="1.0" encoding="UTF-8" standalone="no"?>
<!-- Created with Inkscape (http://www.inkscape.org/) -->

<svg
   version="1.1"
   id="svg1"
   width="512"
   height="512"
   viewBox="0 0 512 512"
   sodipodi:docname="botox (1).png"
   xmlns:inkscape="http://www.inkscape.org/namespaces/inkscape"
   xmlns:sodipodi="http://sodipodi.sourceforge.net/DTD/sodipodi-0.dtd"
   xmlns="http://www.w3.org/2000/svg"
   xmlns:svg="http://www.w3.org/2000/svg">
  <defs
     id="defs1" />
  <sodipodi:namedview
     id="namedview1"
     pagecolor="#ffffff"
     bordercolor="#000000"
     borderopacity="0.25"
     inkscape:showpageshadow="2"
     inkscape:pageopacity="0.0"
     inkscape:pagecheckerboard="0"
     inkscape:deskcolor="#d1d1d1">
    <inkscape:page
       x="0"
       y="0"
       width="512"
       height="512"
       id="page2"
       margin="0"
       bleed="0" />
  </sodipodi:namedview>
  <g
     inkscape:groupmode="layer"
     inkscape:label="Image"
     id="g1">
    <path
       style="fill:#050505;stroke:none"
       d="m 166,124 c -9.3855,-8.1983 -15.85605,-11.78506 -22,2 4.88583,3.40118 15.36662,9.81458 16.64661,16.01465 1.55589,7.53653 -13.74434,20.73874 -18.37577,25.96991 -2.1342,2.41058 -4.65425,5.66855 -8.2716,5.35419 C 129.51115,172.9487 125.20547,167.888 122,165.1304 114.59308,158.75842 106.91394,150.08307 98,146 l 28,-35 c 7.33659,3.79791 10.35432,-1.68286 15,-7 v -1 C 131.20401,93.406219 118.4426,79.768066 106,74 l 9,-12 V 61 C 112.37175,58.579437 107.91692,53.154724 104.03935,53.202942 98.058098,53.277313 88.171722,69.361481 85,74 H 84 L 68.769287,57.996155 78,45 V 44 L 66.039352,36.461426 54.080246,49 26.271605,82 16.202932,95.985352 25,106 h 1 l 10,-13 20,15 v 1 C 51.711124,112.46082 36.821011,126.13324 38.344906,131.98535 39.287663,135.60574 44.378757,138.58536 47,141 h 1 l 9,-11 h 1 c 13.57782,16.83716 34.523437,30.38354 51,44.4213 8.38815,7.14654 15.4075,14.33175 27,14.5787 -4.20509,22.31857 -3.5426,44.80774 1.21065,67 1.88078,8.7811 7.81318,18.23206 8.51697,26.99615 0.33155,4.12885 -4.09848,6.53345 -6.63735,9.09336 -4.70851,4.74753 -8.17291,10.62082 -10.3912,16.91049 -7.61724,21.59775 2.65509,45.53128 23.30093,55.21838 6.28584,2.94934 16.38191,1.35517 21.58102,4.80939 2.74439,1.82337 3.41349,6.08829 4.47222,8.97223 3.12982,8.52548 12.37872,36.12006 23.92361,27.09567 1.96941,-1.53943 4.09236,-3.35498 3.6196,-6.11032 -0.75699,-4.41196 -5.16722,-9.07132 -7.28781,-12.98535 -4.10822,-7.58264 -7.24449,-15.71442 -9.59877,-24 C 183.72197,344.44574 185,326.04626 185,308 c 0,-18.93826 -1.37228,-37.93542 5.42516,-56 2.99362,-7.95575 12.14692,-28.73318 21.5787,-30.40817 5.15476,-0.91544 12.50047,8.11319 16.99614,10.40817 6.76715,-10.23209 8.61873,-14.55832 -4,-21 v -1 c 14.10536,-5.87256 26.51544,-10.8501 42,-11.91049 23.284,-1.59451 47.064,2.68194 70,-2.74384 10.16464,-2.40457 20.13956,-6.9031 29,-12.41125 4.95673,-3.08136 9.74289,-8.87747 16,-8.45139 7.22049,0.49167 14.58295,3.09683 21,6.32639 43.4393,21.86203 37,70.48501 37,111.19058 0,30.16028 2.26318,61.06934 -11.25848,89 C 408.62143,422.56052 355.14053,466.58566 306,461.83026 270.93567,458.43701 240.98866,435.98868 217,412 h -1 c -3.01366,2.77612 -10.5799,7.10742 -8.24846,12 5.79801,12.16724 22.99335,16.05316 29.22067,27.17361 C 239.53108,455.7431 238,463.90787 238,469 v 43 h 14 v -52 c 11.64197,3.35382 22.12003,9.98151 34,13.11575 28.0293,7.39481 61.91782,3.01563 86,-14.11575 v 53 h 15 v -43 c 0,-5.17603 -1.49637,-13.23151 1.02777,-17.90973 3.16425,-5.86459 11.95847,-10.22302 16.97223,-14.51849 9.36581,-8.02408 17.96432,-17.41977 24.97455,-27.57178 5.4476,-7.88904 10.28418,-16.22424 14.16357,-25 1.84824,-4.18094 2.88788,-11.30774 6.37189,-14.39661 3.46188,-3.06921 11.97861,-2.1853 16.48999,-3.5162 9.27579,-2.73648 17.33905,-9.17307 22.77933,-17.08719 12.61014,-18.3443 9.52499,-52.05243 -12.77933,-62 4.08868,-14.19849 10.18021,-27.17871 12.56174,-42 C 495.38171,208.77969 488.46603,170.63815 470,139 l -13,7 c 4.34543,11.94116 11.07059,22.59091 14.57175,35 10.01275,35.48795 6.73571,84.41968 -17.57175,114 0,-46.19479 7.55847,-100.48395 -41,-126.21838 -6.76953,-3.58765 -14.39493,-6.65845 -22,-7.78162 11.20963,-20.13449 20,-37.38702 20,-61 9.94742,5.66763 17.97797,13.96506 26,22 2.92676,2.93146 7.02426,9.47244 11.08951,10.66898 3.23022,0.95077 8.66601,-3.30521 10.15973,-5.96912 C 460.50262,122.68115 454.40622,117.55878 451.96063,115 442.65756,105.26627 432.93945,96.170776 422,88.293976 418.36673,85.677887 413.49005,83.255463 410.72763,79.674377 404.12399,71.113739 402.93045,56.664246 396.93442,47 382.43149,23.624573 358.90854,7.4489746 332,2.0038452 293.23743,-5.8400269 253.01479,10.634735 230.43904,43 222.90456,53.801666 221.56866,70.2883 213.57022,79.815582 199.68672,96.352783 176.55693,103.62372 166,124 m 23,58 9,-11 v -1 C 191.83391,165.70758 179.23146,157.88858 176.19753,150.91049 169.94072,136.51974 184.39923,122.74966 194,114.42438 219.15839,92.608307 249.24574,73.359131 283,69 L 281,54 234,69 C 246.6474,25.0979 302.5123,4.1011963 343,20.452942 382.92294,36.576599 405.32361,80.348145 393.57175,122 c -3.51471,12.45706 -9.83576,24.47855 -18.66202,34 -10.38916,11.2074 -23.30133,19.45364 -37.90973,23.97455 -24.28851,7.51666 -51.92957,3.42581 -77,4.0401 -10.36575,0.254 -21.64584,3.38223 -31,7.76697 -4.4314,2.07721 -11.99522,8.26361 -17,7.2554 C 204.17197,197.46005 195.37006,186.72198 189,182 m 108,-130 1,15 14,-1 V 51 l -15,1 M 75,85 v 1 c -2.45549,2.506958 -5.623291,7.650513 -9.089508,8.668976 C 60.505695,96.257019 51.046722,85.049774 47,82 54.977543,64.584015 64.972809,75.40329 75,85 m 21,-1 c 4.55917,3.435974 17.36282,10.965057 17.96297,17.01465 0.3629,3.6582 -4.09587,7.44736 -6.20988,9.98535 C 101.15711,118.91885 93.818657,126.49042 88,135 L 67,119 v -1 L 96,84 m 71,79 10,8 c -1.59041,3.43073 -5.12886,9.57462 -9.08951,10.65509 -3.36012,0.91666 -9.59601,-4.26645 -9.56558,-7.69446 C 158.38171,169.81412 164.02313,165.27689 167,163 m -15,26 c 3.29477,3.15332 12.86499,14.30554 17.83025,12.79706 C 173.17821,200.77991 176.002,195.65112 178,193 c 4.98985,1.68259 20.72363,11.13834 20.79707,17.03937 0.0406,3.25958 -3.9629,6.65323 -5.87654,8.96063 -4.8809,5.88525 -9.12419,12.14804 -12.55017,19 C 171.33679,256.06714 170,275.18317 170,295 h -1 c -13.04846,-24.79938 -21,-48.74158 -21,-77 0,-8.67957 -0.57367,-21.3768 4,-29 m 90,48 1,15 14,-1 1,-14 h -16 m 32,3 -4,14 c 10.67288,4.14075 15.14362,4.18634 19,-8 l -15,-6 m -63,8 7,13 12,-5 -4,-14 -15,6 m 102,23 c -0.96936,-2.55673 -2.15341,-4.74213 -3.72531,-7.00079 -11.12686,-15.98835 -20.92288,10.54916 -8.18442,11.89892 C 304.74631,276.28552 309.67148,272.38614 313,271 m -104,16 v 1 c 4.37204,5.66754 8.47453,11.90381 15,15.32639 C 237.74231,310.53418 261.77658,306 277,306 v -14 c -19.94159,0 -42.42685,5.40863 -55,-13 l -13,8 m 138,5 v 14 c 15.1666,0 38.11932,4.27008 52,-2.32794 9.07947,-4.3158 21.4917,-18.33075 6.01465,-23.24613 C 399.53683,278.68622 394.46143,289.48303 389,291.19598 376.84418,295.00867 359.7066,292 347,292 m -192,7 14.48688,23 2.51312,31 -1,1 c -8.07695,-1.94522 -15.42398,-2.94586 -21.53549,-9.3009 C 137.12964,331.87265 138.28554,307.69482 155,299 m 298,55 1.51312,-31 L 469,300 c 16.41064,6.49258 16.72427,31.10913 6.6713,42.98535 C 469.31931,350.48932 461.96136,351.8418 453,354 m -245,-34 -11,9 v 1 c 9.49474,9.46854 14.48709,11.09225 21,-2 l -10,-8 m 83,4 c -8.59845,7.85477 -9.25037,9.78745 -3,20 l 14,-9 v -1 l -11,-10 m -62,11 -5,14 16,4 2,-15 -13,-3 m 27,4 1,15 16,-3 -4,-14 -13,2 m 84,37 c -8.32144,1.05719 -16.57788,2.95862 -25,2.99924 -5.42563,0.0262 -10.61533,-0.25687 -16,-0.83335 -3.49338,-0.37402 -11.39172,-2.98266 -14.43597,-1.04858 -3.16336,2.0097 -4.83265,11.26038 -1.24537,13.3688 11.22706,6.5987 31.43039,3.32657 43.68134,2.4892 3.56567,-0.24371 12.69962,-0.23385 14.88272,-3.56406 C 343.96051,386.24176 340.92532,379.29156 340,376 Z"
       id="path1" />
  </g>
</svg>
