<?xml version="1.0" encoding="UTF-8" standalone="no"?>
<!-- Created with Inkscape (http://www.inkscape.org/) -->

<svg
   version="1.1"
   id="svg1"
   width="512"
   height="512"
   viewBox="0 0 512 512"
   sodipodi:docname="chin.png"
   xmlns:inkscape="http://www.inkscape.org/namespaces/inkscape"
   xmlns:sodipodi="http://sodipodi.sourceforge.net/DTD/sodipodi-0.dtd"
   xmlns="http://www.w3.org/2000/svg"
   xmlns:svg="http://www.w3.org/2000/svg">
  <defs
     id="defs1" />
  <sodipodi:namedview
     id="namedview1"
     pagecolor="#ffffff"
     bordercolor="#000000"
     borderopacity="0.25"
     inkscape:showpageshadow="2"
     inkscape:pageopacity="0.0"
     inkscape:pagecheckerboard="0"
     inkscape:deskcolor="#d1d1d1">
    <inkscape:page
       x="0"
       y="0"
       width="512"
       height="512"
       id="page2"
       margin="0"
       bleed="0" />
  </sodipodi:namedview>
  <g
     inkscape:groupmode="layer"
     inkscape:label="Image"
     id="g1">
    <path
       style="fill:#050505;stroke:none"
       d="m 46,292 c -3.027744,9.53137 -4.32468,18.34833 4.043209,25.6713 5.138939,4.49722 13.286572,6.05456 15.384258,13.32946 4.767899,16.53537 -5.589794,34.74854 3.477623,50.99539 4.645165,8.32312 15.862862,13.13474 24.09491,17.25077 44.13278,22.06637 78.26009,-0.96872 115,-25.24692 0.47379,11.03455 3.15479,21.96442 3.91049,33 1.72664,25.21408 -0.23007,51.32346 -5.57252,76 -1.39067,6.42343 -11.57434,29.67676 2.66203,28.66281 11.3651,-0.80948 13.27519,-26.17416 14.75,-34.66281 3.99373,-22.98691 6.30101,-47.66388 4.08025,-71 -1.16636,-12.25626 -7.54731,-30.13245 -5.56173,-42 0.92072,-5.50299 8.01494,-10.07993 11.56173,-14 10.51646,-11.62332 21.09184,-23.25024 31.45524,-35 4.3768,-4.96228 14.88642,-12.07803 10.53473,-19.8912 -2.35348,-4.22556 -7.88641,-4.91001 -11.73071,-2.36652 -9.83168,6.50491 -15.03803,19.58536 -25.08951,25.73071 -5.6777,3.47128 -12.27615,-0.67465 -17.48225,5.73996 C 218.07919,328.44974 219.87172,333.34427 224,336 195.99133,365.78082 150.92142,406.20145 107,387.98843 99.669716,384.94876 87.215881,379.85937 82.858025,372.95679 74.816933,360.22015 84.577759,338.49945 80.214508,324 78.568832,318.53128 74.7286,314.073 70,310.96527 c -2.904785,-1.90906 -8.422718,-3.47281 -9.578705,-7.15045 -2.312237,-7.35614 11.504959,-12.35062 5.71682,-20.59027 -4.025913,-5.73108 -15.370907,-2.77643 -17.565586,-10.26853 -2.590542,-8.84347 12.361675,-16.77166 8.774692,-27.94137 C 53.946812,234.42593 35.715897,230.2139 27,225.12344 23.171707,222.88754 16.9536,219.01141 16.847221,214 c -0.177539,-8.36374 9.516964,-20.00418 13.57716,-27 11.330136,-19.52209 25.656342,-39.67633 30.6875,-62 C 63.723442,113.41229 58.872448,100.36215 56.600307,89 52.697414,69.483032 48.932961,47.938171 51.285492,28 52.116215,20.959473 57.226517,2.7513123 46.995369,0.66665649 37.03236,-1.3633423 36.334869,13.490234 36.039352,20 c -0.999958,22.027496 -0.514183,43.193329 3.571759,65 2.042492,10.900787 7.026638,23.88113 6.165126,35 -1.000312,12.91028 -10.929729,27.05643 -17.203706,38 -7.441124,12.9794 -15.632002,25.61276 -22.3256176,39 -3.0667359,6.13348 -6.90492305,12.89352 -5.94212946,20 C 2.0585833,229.94498 14.290078,237.3743 25,242.72995 c 3.829792,1.91513 11.989613,3.60632 14.093365,7.66049 C 41.026134,254.11511 34.409134,260.50909 33.133488,264 28.80838,275.83606 34.952038,287.14062 46,292 m 343,-89 h 2 c 3.61447,12.54681 12.15405,24.2507 19.33334,35 2.92197,4.37497 8.4141,9.70044 9.30555,15 1.52063,9.04004 -5.41224,23.84943 -7.2392,33 C 408.83142,303.87213 409,321.86307 409,340 c 0,44.78168 7.83557,94.48138 27.75616,135 5.44138,11.06781 11.14692,22.75906 19.54398,31.95602 3.65262,4.00055 9.93277,7.21048 14.09647,1.81559 6.42968,-8.33088 -11.11634,-25.44556 -15.08796,-32.77161 -16.06201,-29.62805 -23.89077,-64.78076 -28.02392,-98 -5.7569,-46.2699 -3.67694,-95.08844 16.02392,-138 16.94806,-36.9155 44.51664,-66.34546 56.11573,-106 C 509.08292,100.97977 512,68.250122 512,34 512,26.248383 515.64099,5.9972839 507.78625,1.4606323 503.70312,-0.89764404 498.97946,1.0872803 496.96991,5.10495 492.46246,14.116608 491.4173,25.498657 487.80786,35 470.83826,79.670013 443.70428,118.36047 404,146 400.13419,115.43753 379.91077,82.178253 344,90.899689 333.59219,93.427368 326.49292,100.0878 318,106 315.90875,91.840027 308.20267,76.797211 299,66 c 49.00452,0 98.73584,-7.100647 143,-29.246918 10.57538,-5.291076 20.62924,-11.65686 29.99615,-18.883484 3.99408,-3.081451 8.44901,-7.244293 6.2577,-12.8256222 C 476.16397,-0.27893066 470.3656,-0.48773193 466,1.9945984 450.92523,10.566284 438.18875,21.300293 422,28.280853 390.69275,41.780487 357.69083,46.782318 324,49.089508 310.48001,50.015381 294.26917,52.376587 281,48.584869 274.88797,46.838348 269.32932,41.428589 264,38.053223 254.70476,32.165985 245.00105,26.900818 235,22.308655 220.95761,15.86084 207.2037,7.1064758 193,1.3672791 188.25119,-0.55151367 182.51921,1.4456787 181.53857,7.0038452 179.68225,17.52533 202.78659,25.148682 210,28.753082 238.95341,43.22052 277.05975,56.903046 293.6875,87 c 5.50668,9.967346 8.93579,21.00235 11.68594,32 1.1373,4.54803 1.67334,11.26083 6.68134,13.25385 9.24344,3.67855 14.91312,-11.06144 20.03473,-16.16358 14.96933,-14.91241 36.03882,-12.79553 47.80554,4.90973 17.28323,26.00592 5.14151,60.37643 -10.23996,84 -6.33942,9.73636 -14.37396,20.11407 -25.65509,24.28937 -8.79535,3.25525 -19.88171,2.92441 -23.51697,-7.28937 -1.51986,-4.27026 -0.44555,-10.0939 -3.22531,-13.77161 -4.41952,-5.84716 -12.20398,-2.42364 -13.72375,3.78626 C 297.83325,235.30829 320.87534,249.59976 341,246.69986 361.76691,243.70743 383.1506,222.88562 389,203 M 92,53.464508 C 83.80545,54.941956 73.578178,59.360352 68.317902,66.040131 64.777237,70.536255 65.662018,77.694427 72.015434,78.766968 79.333412,80.00235 85.395973,72.330902 92,70.10495 c 9.89481,-3.335144 20.51242,-0.865692 30,2.590271 10.08044,3.671936 19.49976,9.483917 28,15.959106 3.87718,2.953492 8.5905,7.987061 13.98457,6.729157 C 180.87898,91.443634 158.96359,74.71701 154,71.344116 136.29659,59.314148 113.89941,49.516083 92,53.464508 M 496,60 c -0.10257,37.238434 -10.62131,76.37387 -28.30865,109 -12.06373,22.25281 -28.85712,41.37915 -38.69135,65 -7.2504,-3.70447 -11.79254,-14.10837 -15.71915,-21 -5.16046,-9.05719 -14.41357,-23.10001 -13.42746,-34 C 400.9509,166.86887 411.44666,160.70544 420,153.58643 435.76685,140.46359 451.43259,126.96771 464.38889,111 472.43707,101.08118 479.60144,90.233459 485.69135,79 489.01913,72.861572 491.32251,65.179901 496,60 M 86,118 c -1.363594,5.72745 -1.049286,11.22794 -0.07948,17 0.977142,5.81573 -2.748627,16.31506 0.682869,20.77161 4.222961,5.48443 12.929237,2.2034 18.396601,0.85415 16.82807,-4.15289 32.47565,-10.80453 48.98457,-13.91897 4.78482,-0.90268 7.78022,-6.11554 5.6574,-10.66281 C 157.1729,126.75504 149.97975,126.12323 145,124.70987 132.8147,121.25143 120.41673,117.85382 109,112.24384 101.4202,108.51926 93.952988,104.37363 87,99.564819 83.5513,97.179626 79.567818,93.489044 75.004631,94.477631 57.512573,98.267212 80.264137,115.28656 86,118 m 36,17 -19,5 -2,-13 21,8 m 72,201.67749 c -4.19586,0.91388 -10.39708,3.39911 -12.41281,7.42743 -3.23532,6.46558 2.84332,12.59817 9.41281,11.06638 4.33838,-1.01157 10.53239,-3.80738 12.25386,-8.21451 2.36885,-6.06452 -3.19911,-11.59809 -9.25386,-10.2793 m -38.00076,17.11957 c -4.60994,0.0373 -11.73265,3.06671 -13.97069,7.25772 -2.79744,5.23855 1.11858,11.44553 6.97221,11.26388 4.58419,-0.14221 11.74509,-3.20571 13.97069,-7.37344 2.85538,-5.34708 -1.15803,-11.19516 -6.97221,-11.14816 M 114,369.48303 c -11.80859,1.86322 -13.28226,17.96869 0,16.21143 11.98108,-1.58515 12.74118,-18.2218 0,-16.21143 M 144,450 c 0,8.85712 -1.9935,20.4494 0.43364,28.98148 1.36729,4.80642 7.17967,7.31225 11.41821,4.27237 C 162.61429,478.40381 159,457.57971 159,450 c 2.51611,1.91641 4.50383,4.48761 7.08951,6.29706 6.13656,4.29437 13.85542,0.57965 12.66667,-7.29706 -1.13451,-7.51733 -19.66405,-28.23309 -27.75618,-27.66281 -7.12869,0.50238 -12.59538,9.99258 -17.03857,14.66281 -3.84555,4.04202 -9.9796,8.8204 -9.79476,14.99615 C 124.58668,465.02902 139.586,454.39841 144,450 Z"
       id="path1" />
  </g>
</svg>
