<?xml version="1.0" encoding="UTF-8" standalone="no"?>
<!-- Created with Inkscape (http://www.inkscape.org/) -->

<svg
   version="1.1"
   id="svg1"
   width="199.80489"
   height="199.80489"
   viewBox="0 0 199.80489 199.80489"
   sodipodi:docname="facial.png"
   xmlns:inkscape="http://www.inkscape.org/namespaces/inkscape"
   xmlns:sodipodi="http://sodipodi.sourceforge.net/DTD/sodipodi-0.dtd"
   xmlns="http://www.w3.org/2000/svg"
   xmlns:svg="http://www.w3.org/2000/svg">
  <defs
     id="defs1" />
  <sodipodi:namedview
     id="namedview1"
     pagecolor="#ffffff"
     bordercolor="#000000"
     borderopacity="0.25"
     inkscape:showpageshadow="2"
     inkscape:pageopacity="0.0"
     inkscape:pagecheckerboard="0"
     inkscape:deskcolor="#d1d1d1">
    <inkscape:page
       x="0"
       y="0"
       width="199.80489"
       height="199.80489"
       id="page2"
       margin="0"
       bleed="0" />
  </sodipodi:namedview>
  <g
     inkscape:groupmode="layer"
     inkscape:label="Image"
     id="g1">
    <path
       style="fill:#080808;stroke:none"
       d="m 23.804879,28.487806 c -0.40452,-1.694384 -0.142346,-4.282679 -1.175851,-5.727801 -1.020868,-1.427449 -2.466452,-0.284454 -2.667268,1.052401 -0.76423,5.087581 1.459053,10.845977 1.501655,15.992474 -1.80507,-0.4176 -3.575265,-1.27139 -5.463414,-1.047876 -13.4009527,1.586343 -12.3615969,20.302557 -8.0942494,29.145438 3.3691754,6.981672 8.4824694,12.750322 14.7283954,17.311047 2.520148,1.84019 6.288989,2.863782 8.421861,5.085224 1.458969,1.519555 1.826523,4.176734 2.584463,6.091535 1.534585,3.876862 3.315466,7.695602 5.384221,11.317072 2.838573,4.96908 6.12855,9.64864 9.787414,14.04878 1.899387,2.28421 5.164304,4.60658 6.199639,7.41464 1.972412,5.34963 0.364156,14.01326 -0.484792,19.51219 -2.003055,12.97443 -8.383849,24.61273 -20.185488,31.09786 -4.14184,2.276 -8.670762,3.87715 -13.268293,4.94068 -1.301583,0.30111 -3.77337,0.57109 -3.365251,2.51371 0.503525,2.39673 5.462395,0.48753 6.877446,0.0819 6.812518,-1.95281 13.329093,-4.77998 18.731708,-9.47878 13.517483,-11.75651 15.565805,-29.15787 15.219513,-45.93586 12.101408,8.00346 23.265572,18.53474 39.024391,14.3782 2.891621,-0.7627 5.639951,-2.08875 8.195121,-3.62691 6.1829,-3.722 10.96994,-8.99971 16.78049,-13.09275 0,17.6458 2.12887,36.43957 16.39024,48.66335 5.16553,4.42751 11.4676,7.23421 17.95122,9.09275 1.53788,0.44084 5.97414,2.23008 6.76605,-0.0518 0.67007,-1.9308 -1.97703,-2.41929 -3.25385,-2.72509 -5.27668,-1.26375 -10.20644,-3.08928 -14.82927,-5.97441 -13.98451,-8.72771 -18.84342,-24.40706 -19.52756,-40.0292 -0.15364,-3.50831 -1.65918,-11.84106 1.62843,-14.27281 1.43855,-1.06406 2.97811,0.25988 4.24059,1.0003 3.61873,2.12232 7.28956,4.15772 10.92683,6.24812 10.67512,6.13517 21.29889,12.36357 32.00001,18.45107 3.77879,2.14962 8.86067,6.57683 13.26829,6.89341 6.39091,0.45901 8.73024,-6.87042 3.50617,-10.47455 -8.41778,-5.80751 -18.04599,-10.33662 -26.92081,-15.42458 -9.63831,-5.52568 -19.20559,-11.91791 -29.26829,-16.61608 3.06878,-4.54899 6.03057,-9.13507 8.48901,-14.04878 1.25599,-2.510376 2.18846,-6.447102 4.15237,-8.433002 2.44976,-2.477205 6.72452,-3.716916 9.60252,-5.782905 7.57024,-5.434333 15.4393,-13.382039 18.33032,-22.467024 2.63318,-8.274748 2.12429,-26.147284 -10.91568,-24.906347 -1.75318,0.166838 -3.47573,0.78449 -5.07317,1.491712 0.0469,-5.670435 1.9704,-11.506337 1.53658,-17.168923 -0.34084,-4.44898 -3.27515,-0.460949 -3.45317,1.94941 -0.0894,1.209985 -0.14269,2.32691 -0.42488,3.512195 -7.85852,-3.386302 -15.19113,-7.384575 -23.41463,-10.012053 -23.5102,-7.511719 -49.901449,-9.3876596 -74.146347,-4.740437 -12.533572,2.402416 -26.373167,6.297936 -36.292684,14.75249 m 133.853661,3.512195 -3.90244,26.146343 c -5.29738,-1.531489 -4.41551,6.573468 -1.17073,2.731707 h 0.39025 c -0.67338,8.461379 -3.53648,18.823648 -7.16592,26.495928 -0.72596,1.534597 -2.39941,2.355636 -3.0289,3.944598 -0.45748,1.154762 0.19523,2.324636 -0.14032,3.510695 -1.35472,4.788372 -5.92108,13.823508 -9.82837,16.934948 -2.06712,1.6461 -7.54123,-0.54668 -9.88528,-1.07136 -1.09844,-0.24585 -2.80196,-0.80604 -3.64438,0.27582 -1.0553,1.35525 0.82498,3.17128 1.61698,4.15328 2.38651,2.959 5.78101,4.94331 2.69045,8.58536 -7.80545,9.19829 -20.11722,19.54554 -32.663047,20.25624 -8.026904,0.45472 -15.552884,-4.03653 -21.85366,-8.43962 C 54.512013,125.34835 39.650124,109.19484 35.512197,91.317077 39.459156,90.901144 36.41223,87.017069 33.951221,86.63415 L 28.87805,61.658539 c 4.448004,1.741771 3.093074,-4.02395 -0.780488,-3.902439 -1.171542,-6.218 -2.197834,-12.464785 -3.071063,-18.731708 -0.259877,-1.865068 -1.347193,-5.224181 -0.424571,-6.956639 1.283887,-2.410823 5.137608,-4.104623 7.398073,-5.452875 7.695396,-4.589903 16.601611,-7.612984 25.365855,-9.366164 34.327072,-6.866711 69.430194,-1.50437 100.292684,14.751287 M 46.439026,25.567896 c -5.721391,0.427532 -11.567466,4.26291 -14.922614,8.773569 -0.748038,1.005657 -4.981544,7.41417 -1.442037,7.5116 1.947563,0.0536 3.095164,-3.887553 4.08341,-5.170137 2.635209,-3.420077 6.485101,-6.423054 10.720266,-7.507979 6.183826,-1.584104 15.936095,1.9385 21.853659,3.866902 1.873065,0.610387 7.086724,3.490889 8.851253,2.442644 3.59244,-2.134134 -4.62048,-4.547125 -5.729302,-4.915384 -6.788908,-2.254704 -16.194396,-5.540742 -23.414635,-5.001215 m 82.341464,-0.03492 c -7.19541,1.030321 -14.59106,2.662502 -21.46341,5.040337 -1.09911,0.380299 -8.460607,3.051103 -4.59229,4.855778 1.82106,0.849586 6.25218,-1.692073 8.10448,-2.267697 5.89823,-1.832948 14.86559,-5.258908 21.07317,-4.377596 4.70282,0.667671 9.02906,3.943693 11.96929,7.508884 1.03298,1.252537 2.38409,5.535609 4.38001,5.236376 3.63003,-0.544219 -1.66958,-7.706114 -2.54081,-8.742854 -3.97255,-4.727254 -10.70275,-8.144973 -16.93044,-7.253228 M 88.668472,37.420662 c -2.100711,0.604956 -1.566203,5.762255 1.00031,4.857577 2.064977,-0.727885 1.37522,-5.541683 -1.00031,-4.857577 m 35.819338,5.506169 c -4.99268,0.630967 -8.76885,1.946325 -13.26829,4.196325 -1.82534,0.912788 -4.35303,1.781524 -4.89792,4.000298 -0.79634,3.242723 2.66649,4.020615 4.89792,4.899736 4.34144,1.710401 7.12347,4.838831 12.09756,5.245105 0.27432,4.951529 5.18416,-0.196587 8.19512,-0.780488 0.97553,3.210819 3.32314,1.050853 2.73171,-1.560975 l 4.29268,-3.121952 c 2.21817,3.073064 3.26697,-0.812976 1.56098,-3.121951 2.00078,-0.175781 4.32229,-0.832448 5.68442,-2.424567 0.65517,-0.76578 1.41845,-2.649962 0.0449,-3.170743 -1.81627,-0.68862 -3.51735,1.862947 -5.7293,1.302627 0.30043,-0.827089 3.02428,-8.213534 -0.66427,-6.210176 -1.52107,0.826136 -1.23647,3.959461 -3.6254,3.308642 -2.78231,-0.757991 -0.78331,-3.798662 -1.96507,-5.559475 -1.48911,-2.218762 -2.82539,0.445896 -2.9964,1.825362 -0.0999,0.805854 -0.29159,1.560975 -0.50496,2.342964 l -2.73171,-0.390244 c 0,-1.318634 0.37884,-3.412872 -0.40108,-4.55707 -2.09943,-3.080018 -2.72075,2.718191 -2.72087,3.776582 m -71.414637,1.170732 c -4.053935,-0.132729 -1.597502,-3.277308 -4.024691,-4.6492 -3.009695,-1.701136 -2.041367,5.066097 -1.828968,6.210175 -1.10741,0.299079 -2.52922,1.088915 -3.534478,0.193919 -0.999217,-0.889612 -1.189274,-3.907524 -3.049382,-3.412835 -3.137409,0.834377 0.861323,5.074754 -0.651912,6.239091 -1.542983,1.187226 -3.050477,-1.974407 -4.73743,-1.035228 -3.760658,2.093667 3.855044,5.228873 5.339055,5.429688 -1.694222,2.2951 -0.332019,6.028213 1.560976,3.121951 l 4.292683,3.121951 c -0.647878,2.861055 1.480549,4.484054 3.121952,1.560976 l 4.682927,0.780488 c 0.18407,3.324695 3.011379,3.376453 3.121951,0 2.72296,-0.222406 5.463147,-1.105826 7.804878,-2.522735 2.244022,-1.357779 7.665236,-3.065596 8.905453,-5.323099 1.283328,-2.335974 -0.722055,-4.367271 -2.661848,-5.374286 -4.472978,-2.322063 -8.557105,-3.470656 -13.245112,-4.900022 -2.187714,-0.667028 -1.047589,-4.679044 -3.509783,-4.610971 -2.13401,0.059 -1.586271,3.818586 -1.586271,5.170137 M 30.439026,85.853662 C 19.6103,81.911839 10.151313,69.837572 8.5853662,58.536588 7.7942195,52.827115 9.0944984,41.025273 17.560976,42.087928 c 6.074267,0.76241 5.503878,6.164337 6.341464,10.985245 1.906977,10.976027 4.287678,21.878919 6.536586,32.780489 m 119.024394,1.170732 c 3.38872,-10.414421 5.94285,-20.843715 7.95664,-31.609758 0.52263,-2.794052 0.37881,-9.863007 2.70249,-11.678104 7.92108,-6.187393 14.77069,3.980433 14.28155,11.28786 -0.70178,10.484138 -7.07161,18.779536 -14.79434,25.416743 -2.93952,2.526344 -6.37114,5.472776 -10.14634,6.583259 M 88.668472,46.396272 c -2.113096,0.608529 -1.481094,5.747773 1.004526,4.857577 2.05673,-0.736602 1.371124,-5.541719 -1.004526,-4.857577 m 31.916898,4.725681 c 3.96501,2.351432 8.6665,-0.825576 4.29268,-4.292683 8.69566,-3.614829 5.25214,13.930153 -2.59892,7.161395 -0.88962,-0.766994 -1.29582,-1.801317 -1.69376,-2.868712 M 55.80488,47.219514 c -2.259724,3.814596 0.90238,8.459116 4.292683,4.292683 1.450797,5.460628 -10.835425,5.862377 -9.210479,-1.560678 0.229587,-1.048804 0.80492,-2.072659 1.836795,-2.496534 0.926716,-0.380669 2.101378,-0.234709 3.081001,-0.235471 m 62.04878,0.780488 c -0.61814,3.331686 0.0211,6.339344 2.73171,8.585366 v 0.390244 l -10.53659,-5.073171 c 1.87186,-1.891792 5.1902,-3.436345 7.80488,-3.902439 m -46.439023,4.292683 -10.536586,5.073171 c 1.953441,-3.168862 2.731708,-5.235912 2.731708,-8.97561 l 7.804878,3.902439 m 66.341463,-1.95122 c -0.73104,3.635135 -4.10718,5.895985 -7.41463,7.024391 2.09261,-3.008896 4.04147,-5.102623 3.12195,-8.97561 l 4.29268,1.951219 M 47.609758,48.78049 c -0.088,3.947194 0.930241,5.766685 3.121951,8.97561 -3.411505,-0.985042 -6.388856,-3.570837 -7.414634,-7.024391 l 4.292683,-1.951219 m 41.058714,6.591392 c -2.113096,0.608529 -1.4811,5.747773 1.004526,4.857577 2.05673,-0.736602 1.371124,-5.541719 -1.004526,-4.857577 M 74.18549,58.570315 c -1.897586,0.889124 -2.730451,5.584937 0.269799,4.406202 2.060696,-0.809594 2.508367,-5.707924 -0.269799,-4.406202 m 32.04547,-0.111412 c -2.31463,0.880014 -0.0936,5.529274 2.13821,4.517614 1.9626,-0.889636 -0.0772,-5.301222 -2.13821,-4.517614 m -71.051194,5.91991 c -2.658763,0.630884 0.138955,4.562798 2.225836,4.15718 2.615169,-0.508301 -0.207076,-4.636207 -2.225836,-4.15718 m 53.137912,0.03943 c -1.831823,1.089713 -0.765827,6.133123 1.660948,4.577542 1.818235,-1.165504 0.790087,-6.035609 -1.660948,-4.577542 m 56.853062,0.31437 c -2.27694,0.855362 -2.88747,5.096442 0,3.857577 2.04223,-0.876215 3.16342,-5.045958 0,-3.857577 m -75.714849,0.89702 c -2.099854,0.23871 -4.281274,4.662098 -1.146044,4.35591 2.264071,-0.221108 4.23737,-4.707329 1.146044,-4.35591 m 42.177059,-0.0015 c -2.96725,0.394245 -0.12133,4.480576 1.90515,4.383027 2.96905,-0.142936 0.36644,-4.684845 -1.90515,-4.383027 m -69.038549,3.817835 c -2.822203,0.766304 0.558683,4.306808 2.615779,3.643484 2.72636,-0.879133 -0.751367,-4.149724 -2.615779,-3.643484 m 95.550139,-0.03463 c -2.51899,0.274771 -4.21364,4.131241 -0.77687,3.803068 2.6688,-0.254835 4.08367,-4.163765 0.77687,-3.803068 M 61.652817,70.52425 c -2.551216,0.386909 -4.162205,4.187596 -0.769043,3.672983 2.578452,-0.391054 4.130329,-4.182749 0.769043,-3.672983 m 57.395973,0.09124 c -3.05162,0.806986 0.53629,4.211486 2.6495,3.559464 2.91774,-0.90026 -0.67587,-4.081389 -2.6495,-3.559464 m -68.227648,1.479064 c -2.967365,1.387636 0.856773,3.908918 2.974705,2.987054 3.010534,-1.31038 -0.75524,-4.024938 -2.974705,-2.987054 m 76.489018,0 c -2.89992,1.376548 1.22192,3.744093 3.36344,2.631741 3.08173,-1.600717 -1.42334,-3.552675 -3.36344,-2.631741 m -46.879261,2.900938 c -1.700171,0.672614 -2.048959,3.446313 -1.918403,5.004514 0.359673,4.292778 3.483744,8.325327 6.576035,11.09094 1.078024,0.964141 2.949886,3.094584 4.60825,2.414325 1.295374,-0.531358 1.000381,-1.878942 0.278529,-2.738329 -2.712498,-3.229338 -6.915099,-5.480958 -7.871422,-9.986448 -0.325481,-1.533429 0.456251,-2.816406 0.357422,-4.285156 -0.06913,-1.027356 -0.966642,-1.920685 -2.030411,-1.499846 m 13.625412,11.538087 c -0.885314,0.353837 -2.486138,1.848502 -1.046673,2.59681 1.236257,0.642674 6.334074,0.769008 7.547422,0.09937 1.35414,-0.747333 0.3586,-2.2621 -0.677501,-2.696182 -1.438095,-0.602504 -4.380252,-0.576732 -5.823248,0 m -53.770552,5.87625 c -2.61906,0.976801 0.874101,4.894413 2.907257,4.059619 2.444577,-1.003716 -0.905598,-4.806153 -2.907257,-4.059619 m 97.853061,3.934047 c -2.12237,0.291909 -4.27247,4.430376 -1.14604,4.117736 2.3591,-0.2359 4.33085,-4.555772 1.14604,-4.117736 m -90.682028,1.229754 c -1.942946,1.530548 2.133515,4.898402 3.818124,3.258362 1.890155,-1.840167 -2.208103,-4.526643 -3.818124,-3.258362 m 8.781092,3.471242 c -3.184665,0.92586 0.406727,4.4148 2.631134,3.65883 2.88835,-0.98159 -0.57332,-4.2571 -2.631134,-3.65883 m 26.493827,0.21078 c -2.468935,0.46641 -4.594394,2.01861 -6.634147,3.40561 -2.124863,1.44486 -6.63479,3.39047 -7.694068,5.8142 -1.115598,2.5526 2.941859,6.60362 4.573623,8.12226 6.40241,5.95852 15.858483,7.30962 24.193617,5.71033 5.291004,-1.01522 10.447634,-4.11435 13.697684,-8.40561 1.09692,-1.44833 2.98736,-3.82276 1.89973,-5.73652 -0.77903,-1.37076 -2.62082,-2.26126 -3.8901,-3.10901 -3.42493,-2.28747 -7.0297,-5.65295 -11.317071,-5.9482 -2.464706,-0.16973 -4.675424,1.26432 -7.02439,1.14001 -2.745618,-0.1453 -4.914575,-1.53909 -7.804878,-0.99307 m 47.220719,0.14453 c -2.34693,0.76196 -3.14561,4.41586 0,3.68805 2.76091,-0.6388 3.26587,-4.74836 0,-3.68805 m -24.58657,7.86812 H 75.70732 c 2.585955,-2.82179 6.626155,-5.09746 10.536586,-4.61066 1.59537,0.1986 3.074153,1.33419 4.682927,1.25776 1.599282,-0.076 3.077649,-1.06586 4.682927,-1.25806 3.663509,-0.43863 7.4988,1.84009 9.7561,4.61096 m 16.39024,-4.07709 c -2.74482,0.55604 -3.21105,4.05093 10e-4,3.37127 2.77171,-0.58644 3.26375,-4.03268 -10e-4,-3.37127 m -12.87805,7.58928 c -7.1598,12.38634 -28.957154,11.72749 -36.292681,0 l 18.731708,0.38422 17.560973,-0.38422 m 80.00001,35.90244 -2.34147,4.29269 c -14.77987,-6.90871 -28.76988,-16.51757 -42.92683,-24.64379 -6.49727,-3.72949 -14.84832,-6.8742 -18.73171,-13.60012 8.54477,0.68001 15.77066,6.33701 23.02439,10.47787 13.65233,7.79355 27.56795,15.26739 40.97562,23.47335 M 89.416144,126.863 c -1.97839,0.43696 -1.68962,5.65404 0.648598,5.05089 1.936464,-0.49951 1.798465,-5.59137 -0.648598,-5.05089 m -0.318276,8.99519 c -1.695366,0.90103 -1.119355,6.13415 1.316466,4.61126 1.604099,-1.00291 1.013505,-5.84958 -1.316466,-4.61126 m 102.511892,15.55645 -1.56097,2.34146 0.78049,-2.34146 z"
       id="path1" />
  </g>
</svg>
