<?xml version="1.0" encoding="UTF-8" standalone="no"?>
<!-- Created with Inkscape (http://www.inkscape.org/) -->

<svg
   version="1.1"
   id="svg1"
   width="512"
   height="512"
   viewBox="0 0 512 512"
   sodipodi:docname="surgery.png"
   xmlns:inkscape="http://www.inkscape.org/namespaces/inkscape"
   xmlns:sodipodi="http://sodipodi.sourceforge.net/DTD/sodipodi-0.dtd"
   xmlns="http://www.w3.org/2000/svg"
   xmlns:svg="http://www.w3.org/2000/svg">
  <defs
     id="defs1" />
  <sodipodi:namedview
     id="namedview1"
     pagecolor="#ffffff"
     bordercolor="#000000"
     borderopacity="0.25"
     inkscape:showpageshadow="2"
     inkscape:pageopacity="0.0"
     inkscape:pagecheckerboard="0"
     inkscape:deskcolor="#d1d1d1">
    <inkscape:page
       x="0"
       y="0"
       width="512"
       height="512"
       id="page2"
       margin="0"
       bleed="0" />
  </sodipodi:namedview>
  <g
     inkscape:groupmode="layer"
     inkscape:label="Image"
     id="g1">
    <path
       style="fill:#070707;stroke:none"
       d="M 152,75 C 144.67033,44.141907 111.5027,39.873962 87,52.780853 59.824081,67.095886 39.499641,96.61618 35.131172,127 32.033066,148.5481 36.096767,174.50061 59,183.53549 65.847,186.23651 72.780334,186 80,186 c -10.332214,50.05862 -5.698235,100.25317 28.43827,141 8.66322,10.34082 18.46566,19.41437 29.56173,27.11499 4.53006,3.14383 14.39111,6.71286 16.54784,11.98993 2.6029,6.36883 -0.18071,17.3024 -1.12731,23.89508 -2.96983,20.68393 -7.47293,40.77084 -15.84491,60 -2.04858,4.70529 -16.26529,23.19998 -8.34799,26.37732 7.62814,3.06128 14.63455,-14.27985 16.91126,-19.37732 10.55549,-23.63354 15.55523,-48.42935 18.57562,-74 0.71211,-6.02878 -0.2099,-13.3197 2.22299,-19 6.48239,-15.13507 17.91975,-26.47626 22.63504,-43 9.93779,-34.82483 -9.11174,-81.41122 29.42746,-103.12421 5.1503,-2.90167 11.14842,-4.73959 17,-5.57565 13.23494,-1.89096 26.4552,0.72089 35.82639,10.73923 8.12255,8.6835 16.00991,28.99331 31.17361,22.42743 15.30997,-6.62925 16.16174,-22.44413 19.00385,-36.4668 3.04068,-15.00232 9.54135,-29.13159 23.99615,-36 4.64041,17.84241 21.5191,3.36954 6,-5 1.7215,-4.73788 4.26495,-9.00314 5.33102,-14 2.4795,-11.62186 1.2764,-37.28375 20.66898,-36.36728 6.63644,0.31363 13.77454,9.82932 17.82639,14.36728 14.33682,16.05692 25.71478,39.25061 26.79861,61 0.142,2.84937 -0.0349,7.12668 -1.64813,9.58563 -1.87277,2.85443 -6.71231,3.9473 -5.31485,8.31098 0.98501,3.0758 4.64422,3.9692 6.49539,6.37732 3.10785,4.04284 4.09766,8.81744 7.93594,12.55246 11.59595,11.28393 30.4303,20.12326 36.40897,36.17361 4.60654,12.36673 -19.94721,19.55844 -22.94446,31 -2.45273,9.36285 5.62653,13.71545 6.1088,22 0.39798,6.83676 -7.88758,8.92004 -9.18903,15.00385 -1.21796,5.69348 5.82083,7.91296 5.40509,12.79785 -0.27084,3.18252 -5.61032,4.87222 -7.69446,6.72763 -3.3533,2.98526 -4.93155,7.10263 -5.53317,11.47067 -1.80658,13.11646 6.92981,26.94904 -5.74844,37.46759 -8.72141,7.23575 -26.64377,4.54175 -36.90665,1.90277 -29.07297,-7.47571 -60.50195,-18.73813 -83.98071,-38.03934 -5.28192,-4.3421 -13.74652,-12.44513 -17.13965,-18.33102 -2.30499,-3.99835 -2.53998,-9.08456 -4.89276,-12.85187 -1.53864,-2.46365 -5.04212,-3.81369 -7.38349,-1.5401 -5.63571,5.47254 1.91956,18.59369 5.14585,23.39197 11.9321,17.74585 33.7911,30.89825 53.25076,39 v 1 c -20.73199,9.06171 -31.0563,35.30048 -38.79706,55 -1.58945,4.04498 -12.22656,25.68713 -1.2315,24.53394 6.38327,-0.6695 8.70022,-14.67072 10.62963,-19.53394 6.8544,-17.27698 15.04401,-38.50195 31.39893,-49.03085 10.35611,-6.66703 20.35052,-2.30408 31,1.0054 22.03723,6.84839 59.75861,19.55859 73.17902,-7.97455 5.95843,-12.22427 -1.53733,-23.91003 2.02313,-35.28162 C 446.63293,354.76093 466.32343,350.29669 452,336 c 6.04517,-6.37592 10.15591,-14.05673 7.03394,-23 -1.31495,-3.76678 -5.51264,-7.91821 -5.29786,-12 0.24845,-4.72171 5.89408,-7.97293 9.26392,-10.42361 C 469.94846,285.52319 477.73376,279.50937 477.81635,270 477.9671,252.64166 459.00024,239.004 447,229.39969 441.68985,225.14972 434.94128,220.8252 432.80402,214 430.9483,208.07388 433,201.11823 433,195 c 0,-9.00494 -1.80484,-17.41321 -4.43518,-26 -5.15225,-16.81958 -14.31705,-32.76099 -25.85419,-46 -4.73504,-5.43353 -12.061,-9.23456 -16.11111,-15.08951 C 379.73706,97.98996 379.85696,85.883759 370.82639,76.014648 354.15747,57.797943 328.28632,48.975128 305,43.126556 248.66243,28.976837 196.21063,34.283112 152,75 m 85,-29.714508 c 34.74591,-4.155457 81.47314,7.22052 111,25.528534 9.58563,5.943542 28.49042,20.588562 26.49768,34.053254 -0.55139,3.72565 -5.74072,4.84412 -8.49768,6.48535 -5.0546,3.00903 -9.66946,7.74316 -12.89197,12.64737 -6.87723,10.46625 -2.07672,22.58109 -7.55017,33 -5.22418,9.9444 -17.59421,14.32309 -23.85879,24 -5.59171,8.63754 -8.63504,18.90228 -10.26081,29 -1.43164,8.89209 -1.8175,19.03442 -10.44211,24.39197 -4.22134,2.62228 -7.43255,-0.0657 -10.09722,-3.41126 -6.48581,-8.14316 -12.02265,-16.97708 -20.89893,-22.87576 -19.38667,-12.88333 -49.55609,-7.13324 -66,7.9884 -31.29576,28.77927 -13.89175,66.95722 -24.72145,102.90665 -2.86177,9.49973 -7.39331,18.64774 -12.71449,27 -1.66932,2.62018 -4.11675,7.4855 -7.65433,7.74768 C 150.48892,354.37177 136.88177,340.45969 131,335.42053 101.43599,310.09186 86.700325,273.12555 84.089508,235 81.857521,202.40652 94.369003,170.3829 110.80016,143 139.02707,95.959167 179.94707,52.108795 237,45.285492 M 130,60 C 121.52332,72.033661 110.11996,82.325012 101.01389,94 83.130905,116.92795 67.041679,143.25958 58,171 43.230385,162.27676 42.632965,142.0351 45.25,127 49.733681,101.24088 67.51622,74.333374 91,62.259247 103.15907,56.00769 117.56702,52.932739 130,60 m 8,8 c 3.07413,5.291931 6.71516,12.112823 3.10571,18 -10.49449,17.11697 -26.12338,31.7337 -37.05247,49 -7.159884,11.31149 -11.425165,27.7056 -19.871142,37.68597 C 80.365814,177.19556 72.053246,176.20309 67,175 76.333519,146.36423 92.92395,119.47586 111.60108,96 119.41928,86.173065 127.66466,75.280365 138,68 m 229.22839,120.7616 c -7.98703,3.33026 2.62665,14.68399 8.66205,12.59103 8.6564,-3.00189 -2.216,-15.27875 -8.66205,-12.59103 m 23.08951,14.27002 c -7.86609,5.13351 5.92148,13.1932 11.44983,9.92596 8.18295,-4.83609 -5.84183,-13.58581 -11.44983,-9.92596 m -67.16977,49.99615 c -9.09231,5.396 4.82807,11.47904 10.69986,7.94446 8.34519,-5.0235 -5.04358,-11.30127 -10.69986,-7.94446 m 23.17053,10.00464 c -6.89508,4.47101 4.94938,14.71765 10.45215,11.7446 8.06897,-4.35953 -4.46536,-15.62662 -10.45215,-11.7446 m -37.04089,4.0108 c -5.65848,3.36591 -2.84634,18.18207 4.4946,14.66898 6.17743,-2.9563 3.44931,-19.39432 -4.4946,-14.66898 m 59.15973,10.98844 c -6.75424,4.60745 5.64767,14.60043 11.24384,10.9367 6.86486,-4.49432 -5.7334,-14.69568 -11.24384,-10.9367 m -46.20831,10.03933 c -8.06378,4.38605 4.56122,15.47364 10.33716,11.73456 7.12124,-4.60992 -4.75803,-14.76916 -10.33716,-11.73456 m 69.91894,3.77625 c -8.17261,2.73581 2.34854,14.8226 8.70374,12.50537 8.31787,-3.03284 -2.55243,-14.56458 -8.70374,-12.50537 m -47.83023,11.19598 c -7.08966,4.44925 4.74732,15.05948 10.3642,11.73456 7.04184,-4.1684 -4.58817,-15.35944 -10.3642,-11.73456 m 69.83023,4.03937 c -7.50659,3.78595 2.52152,16.33359 8.6196,12.87036 6.92355,-3.93207 -2.58298,-15.91498 -8.6196,-12.87036 m -47.71371,10.94983 c -6.79291,4.55792 5.61767,15.57269 11.12808,11.18518 6.47876,-5.15857 -5.7706,-14.77997 -11.12808,-11.18518 M 418,331.04706 c -7.25974,3.3565 -8.77417,17.48199 0.98456,12.75848 6.57709,-3.18347 8.17193,-16.99191 -0.98456,-12.75848 m -26.95602,0.919 c -9.57322,0.63263 -1.05075,13.25705 5.91204,12.69751 9.75263,-0.78375 0.61029,-13.12854 -5.91204,-12.69751 m -80.04322,11.6875 c -10.72485,1.25629 -5.05316,11.63047 3.9838,10.19831 9.6062,-1.5224 3.72467,-11.10129 -3.9838,-10.19831 m 19.3179,9.37809 c -7.2456,4.73336 5.74799,14.28 11.24384,10.07022 6.7926,-5.20313 -5.98776,-13.50388 -11.24384,-10.07022 m 22.99924,11 c -7.11966,4.63107 5.06259,14.18536 10.36344,10.18286 6.6362,-5.01077 -4.8902,-13.74301 -10.36344,-10.18286 m 22.1196,11 c -6.76617,4.6278 6.13354,14.04147 11.24384,10.18286 6.98413,-5.27347 -5.82047,-13.89224 -11.24384,-10.18286 m 22.88116,10.99997 c -6.70263,4.39105 5.14399,13.97079 10.44907,10.92208 7.63208,-4.38598 -4.52325,-14.80416 -10.44907,-10.92208 z"
       id="path1" />
  </g>
</svg>
